<svg width="711" height="669" viewBox="0 0 711 669" fill="none" xmlns="http://www.w3.org/2000/svg">
<path d="M352.5 7.5001C546.453 7.50016 703.5 154.001 703.5 334.5C703.5 515 546.453 661.5 352.5 661.5C158.547 661.5 1.50005 514.999 1.50011 334.5C1.50017 154.001 158.547 7.50005 352.5 7.5001Z" stroke="#F7FEE7" stroke-width="3"/>
<path d="M352.5 290C378.963 290 400 310.146 400 334.5C400 358.854 378.963 379 352.5 379C326.037 379 305 358.854 305 334.5C305 310.146 326.037 290 352.5 290Z" fill="#BEF264" stroke="#84CC16" stroke-width="8"/>
<path d="M352.5 210.5C426.053 210.5 485.5 266.113 485.5 334.5C485.5 402.887 426.053 458.5 352.5 458.5C278.947 458.5 219.5 402.887 219.5 334.5C219.5 266.113 278.947 210.5 352.5 210.5Z" stroke="#BEF264" stroke-width="3"/>
<path d="M352.5 133.5C471.896 133.5 568.5 223.59 568.5 334.5C568.5 445.41 471.896 535.5 352.5 535.5C233.104 535.5 136.5 445.41 136.5 334.5C136.5 223.59 233.104 133.5 352.5 133.5Z" stroke="#F7FEE7" stroke-width="3"/>
<circle cx="352" cy="133" r="6" fill="#BEF264"/>
<circle cx="352" cy="538" r="6" fill="#BEF264"/>
<circle cx="569" cy="335" r="6" fill="#BEF264"/>
<circle cx="515" cy="467" r="6" fill="#BEF264"/>
<circle cx="192" cy="198" r="6" fill="#BEF264"/>
<circle cx="487" cy="177" r="6" fill="#BEF264"/>
<circle cx="198" cy="473" r="6" fill="#BEF264"/>
<circle cx="135" cy="335" r="6" fill="#BEF264"/>
<circle cx="353" cy="663" r="6" fill="#BEF264"/>
<circle cx="705" cy="335" r="6" fill="#BEF264"/>
<circle cx="352" cy="210" r="6" fill="#BEF264"/>
<circle cx="352" cy="461" r="6" fill="#BEF264"/>
<circle cx="353" cy="6" r="6" fill="#BEF264"/>
</svg>
