<svg width="72" height="72" viewBox="0 0 72 72" fill="none" xmlns="http://www.w3.org/2000/svg">
<g clip-path="url(#clip0_684_1785)">
<rect width="72" height="72" rx="36" fill="#93BC9A"/>
<path d="M28.125 59V54.5703L31.7344 53.8438V30.0547L28.125 29.3281V24.875H31.7344H39.2344H43.4297V29.3281L39.2344 30.0547V53.2578H48.1406L48.3984 48.3594H54.1172V59H28.125Z" fill="#F9FCFF"/>
<path d="M12.1171 27.6533L15.6775 25.0177L18.4982 27.4495L37.4489 13.4209L35.9656 9.99906L39.5448 7.34954L41.7062 10.2694L48.7484 19.7824C50.5705 22.2438 51.6011 24.8441 51.8402 27.5831C52.0919 30.3129 51.5956 32.9645 50.3514 35.538C49.1197 38.1023 47.1852 40.3605 44.5479 42.3128L44.077 42.6614C41.4523 44.6044 38.7322 45.8015 35.9168 46.2526C33.114 46.6944 30.4377 46.4011 27.8878 45.3726C25.3505 44.3349 23.1708 42.5852 21.3487 40.1238L12.1171 27.6533ZM23.3185 33.2126L25.6891 36.415C26.7768 37.8843 28.0647 38.8361 29.5526 39.2704C31.0498 39.7173 32.6546 39.7055 34.367 39.2349C36.1012 38.7677 37.8411 37.8879 39.5867 36.5957L40.0765 36.2331C41.8347 34.9316 43.1841 33.5244 44.1249 32.0115C45.0749 30.5112 45.5485 28.9844 45.5458 27.4312C45.5648 25.8813 45.0305 24.3717 43.9428 22.9024L41.5722 19.7L23.3185 33.2126Z" fill="#F9FCFF"/>
<path d="M25.9555 27.5636L25.2454 27.3905L25.7406 24.4383L25.742 24.4301L25.3531 24.6614L25.0322 24.2066L26.5572 23.1308L26.8781 23.5857L26.5974 23.8841L25.9555 27.5636ZM25.5736 29.0449L25.2544 28.5925L25.5707 28.2582L23.8566 25.8283L23.4355 26.0142L23.1147 25.5593L24.5917 24.5173L24.9126 24.9722L24.6226 25.2879L26.3368 27.7178L26.7314 27.5505L27.0506 28.0029L25.5736 29.0449ZM27.5653 27.6398L27.2462 27.1874L27.5634 26.9205L27.5658 26.9188L25.868 26.3418L26.0437 25.4829L28.432 26.2612L28.8238 26.0745L29.143 26.5269L27.5653 27.6398ZM29.7004 26.1337L29.3812 25.6812L29.6975 25.347L27.9834 22.9171L27.5624 23.103L27.2415 22.6481L28.7401 21.5909L29.061 22.0458L28.747 22.3784L30.4612 24.8082L30.8798 24.6241L31.199 25.0765L29.7004 26.1337ZM31.8258 24.6343L31.5066 24.1819L31.8182 23.851L30.104 21.4211L29.6878 21.6036L29.3669 21.1487L29.7308 20.892L30.5112 20.3415L33.6148 21.6406L33.6274 21.6281L32.3592 19.8303L31.8543 20.0752L31.5335 19.6204L32.6682 18.8199L33.0345 18.5615L33.3554 19.0163L33.0414 19.3489L35.1271 22.3055L34.3778 22.8341L31.2685 21.5928L31.2541 21.6029L32.5004 23.3697L33.0076 23.123L33.3268 23.5755L31.8258 24.6343ZM37.7405 20.5372C37.3862 20.7871 37.0352 20.9283 36.6876 20.9608C36.3417 20.9922 36.0143 20.9279 35.7055 20.7681C35.3972 20.6055 35.126 20.3582 34.8918 20.0263L34.7939 19.8874C34.5484 19.5395 34.3967 19.1888 34.3386 18.8354C34.281 18.4793 34.3197 18.1412 34.4549 17.8212C34.5917 17.5 34.8276 17.2213 35.1628 16.9848C35.407 16.8126 35.6679 16.6811 35.9457 16.5903C36.2251 16.4984 36.5027 16.465 36.7786 16.4903L37.3376 17.2827L36.7822 17.6745L36.3489 17.299C36.2515 17.2864 36.1394 17.2986 36.0125 17.3355C35.8856 17.3724 35.7567 17.4371 35.6258 17.5294C35.4327 17.6656 35.3038 17.8319 35.2391 18.0281C35.1748 18.2216 35.1692 18.4323 35.2224 18.6601C35.276 18.8852 35.385 19.1143 35.5494 19.3473L35.6507 19.4909C35.8083 19.7144 35.9816 19.8837 36.1705 19.9991C36.3583 20.1128 36.5529 20.1667 36.7543 20.1609C36.9558 20.155 37.157 20.0811 37.3581 19.9393C37.4698 19.8605 37.5681 19.7744 37.6529 19.6812C37.7392 19.5868 37.8029 19.5024 37.8437 19.4282L37.4739 18.9039L36.9958 19.1767L36.6209 18.6452L37.8346 17.789L38.8411 19.2158C38.753 19.45 38.6174 19.6796 38.4342 19.9044C38.2526 20.1281 38.0214 20.339 37.7405 20.5372Z" fill="url(#paint0_linear_684_1785)"/>
</g>
<defs>
<linearGradient id="paint0_linear_684_1785" x1="28.9457" y1="19.3234" x2="33.5572" y2="25.8605" gradientUnits="userSpaceOnUse">
<stop stop-color="#16222A"/>
<stop offset="1" stop-color="#3A6073"/>
</linearGradient>
<clipPath id="clip0_684_1785">
<rect width="72" height="72" rx="36" fill="white"/>
</clipPath>
</defs>
</svg>
