<svg width="62" height="48" viewBox="0 0 62 48" fill="none" xmlns="http://www.w3.org/2000/svg">
<rect x="7" width="48" height="48" rx="24" fill="#F7FEE7"/>
<path d="M13.3931 0C9.95601 0 7.41353 3.0094 7.52703 6.27309C7.63622 9.40796 7.49447 13.469 6.47202 16.7801C5.44718 20.1018 3.71356 22.2008 0.881836 22.4709V25.5296C3.71356 25.7992 5.44718 27.8987 6.47202 31.2204C7.49447 34.5315 7.63574 38.5925 7.52703 41.7274C7.41305 44.9911 9.95601 48 13.3931 48H48.6113C52.0483 48 54.5908 44.9906 54.4773 41.7274C54.3681 38.5925 54.5099 34.5315 55.5318 31.2204C56.5567 27.8992 58.286 25.7997 61.1177 25.5296V22.4709C58.286 22.2013 56.5571 20.1018 55.5318 16.7801C54.5099 13.469 54.3681 9.40796 54.4773 6.27309C54.5908 3.0094 52.0483 0 48.6108 0H13.3931ZM41.2238 29.5413C41.2238 34.0353 37.8705 36.7598 32.3062 36.7598H22.0472C22.0163 36.7598 21.9857 36.7538 21.9572 36.742C21.9286 36.7302 21.9027 36.7129 21.8808 36.691C21.859 36.6692 21.8417 36.6433 21.8299 36.6147C21.8181 36.5861 21.812 36.5555 21.8121 36.5246V11.4658C21.812 11.4349 21.818 11.4042 21.8297 11.3756C21.8415 11.347 21.8588 11.321 21.8807 11.2991C21.9025 11.2772 21.9285 11.2598 21.9571 11.248C21.9857 11.2362 22.0163 11.2301 22.0472 11.2302H32.2521C36.8921 11.2302 39.937 13.7425 39.937 17.5995C39.937 20.3067 37.8887 22.73 35.2787 23.1547V23.2965C38.8312 23.6858 41.2238 26.145 41.2238 29.5413ZM31.2732 14.468H25.8722V22.093H30.4217C33.9378 22.093 35.8769 20.6779 35.8769 18.1479C35.8769 15.7773 34.2098 14.468 31.2732 14.468ZM25.8722 25.1187V33.5224H31.4729C35.1341 33.5224 37.0736 32.0541 37.0736 29.2937C37.0736 26.5339 35.08 25.1187 31.2373 25.1187H25.8722Z" fill="#605858"/>
</svg>
