<svg width="48" height="48" viewBox="0 0 48 48" fill="none" xmlns="http://www.w3.org/2000/svg">
<rect width="48" height="48" rx="24" fill="#F7FEE7"/>
<path d="M15.1965 12C13.478 12 12.2068 13.5047 12.2635 15.1365C12.3181 16.704 12.2472 18.7345 11.736 20.3901C11.2236 22.0509 10.3568 23.1004 8.94092 23.2354V24.7648C10.3568 24.8996 11.2236 25.9494 11.736 27.6102C12.2472 29.2657 12.3179 31.2963 12.2635 32.8637C12.2065 34.4955 13.478 36 15.1965 36H32.8056C34.5242 36 35.7954 34.4953 35.7386 32.8637C35.684 31.2963 35.7549 29.2657 36.2659 27.6102C36.7783 25.9496 37.643 24.8999 39.0588 24.7648V23.2354C37.643 23.1006 36.7786 22.0509 36.2659 20.3901C35.7549 18.7345 35.684 16.704 35.7386 15.1365C35.7954 13.5047 34.5242 12 32.8054 12H15.1965ZM29.1119 26.7707C29.1119 29.0177 27.4353 30.3799 24.6531 30.3799H19.5236C19.5082 30.3799 19.4929 30.3769 19.4786 30.371C19.4643 30.3651 19.4513 30.3564 19.4404 30.3455C19.4295 30.3346 19.4208 30.3216 19.4149 30.3073C19.409 30.2931 19.406 30.2778 19.406 30.2623V17.7329C19.406 17.7174 19.409 17.7021 19.4149 17.6878C19.4207 17.6735 19.4294 17.6605 19.4403 17.6495C19.4513 17.6386 19.4642 17.6299 19.4785 17.624C19.4928 17.6181 19.5081 17.6151 19.5236 17.6151H24.626C26.9461 17.6151 28.4685 18.8712 28.4685 20.7998C28.4685 22.1534 27.4444 23.365 26.1394 23.5774V23.6482C27.9156 23.8429 29.1119 25.0725 29.1119 26.7707ZM24.1366 19.234H21.4361V23.0465H23.7109C25.4689 23.0465 26.4384 22.3389 26.4384 21.0739C26.4384 19.8887 25.6049 19.234 24.1366 19.234ZM21.4361 24.5594V28.7612H24.2365C26.067 28.7612 27.0368 28.0271 27.0368 26.6469C27.0368 25.2669 26.04 24.5594 24.1186 24.5594H21.4361Z" fill="black"/>
</svg>
