<svg width="49" height="48" viewBox="0 0 49 48" fill="none" xmlns="http://www.w3.org/2000/svg">
<path fill-rule="evenodd" clip-rule="evenodd" d="M7.26978 39.656C9.61178 42 13.3838 42 20.9258 42H28.7858C28.2242 41.0357 27.9275 39.94 27.9258 38.824C27.9258 37.192 28.5658 35.64 29.6398 34.5H27.9258C27.528 34.5 27.1464 34.342 26.8651 34.0607C26.5838 33.7794 26.4258 33.3978 26.4258 33C26.4258 32.6022 26.5838 32.2206 26.8651 31.9393C27.1464 31.658 27.528 31.5 27.9258 31.5H31.7818C32.8038 28.92 35.2358 27 38.2598 27C41.3798 27 43.8798 29.056 44.8358 31.76L44.8638 31.78C44.9258 30.148 44.9258 28.24 44.9258 26V25.5H4.92578V26C4.92578 33.542 4.92578 37.314 7.26978 39.656ZM12.9258 36.5C12.528 36.5 12.1464 36.342 11.8651 36.0607C11.5838 35.7794 11.4258 35.3978 11.4258 35V31C11.4258 30.6022 11.5838 30.2206 11.8651 29.9393C12.1464 29.658 12.528 29.5 12.9258 29.5C13.3236 29.5 13.7051 29.658 13.9864 29.9393C14.2677 30.2206 14.4258 30.6022 14.4258 31V35C14.4258 35.3978 14.2677 35.7794 13.9864 36.0607C13.7051 36.342 13.3236 36.5 12.9258 36.5ZM18.9258 36.5C18.528 36.5 18.1464 36.342 17.8651 36.0607C17.5838 35.7794 17.4258 35.3978 17.4258 35V31C17.4258 30.6022 17.5838 30.2206 17.8651 29.9393C18.1464 29.658 18.528 29.5 18.9258 29.5C19.3236 29.5 19.7051 29.658 19.9864 29.9393C20.2677 30.2206 20.4258 30.6022 20.4258 31V35C20.4258 35.3978 20.2677 35.7794 19.9864 36.0607C19.7051 36.342 19.3236 36.5 18.9258 36.5ZM7.26978 8.344C4.92578 10.686 4.92578 14.458 4.92578 22V22.5H44.9258V22C44.9258 14.458 44.9258 10.686 42.5818 8.344C40.2398 6 36.4678 6 28.9258 6H20.9258C13.3838 6 9.61178 6 7.26978 8.344ZM18.9258 18.5C18.528 18.5 18.1464 18.342 17.8651 18.0607C17.5838 17.7794 17.4258 17.3978 17.4258 17V13C17.4258 12.6022 17.5838 12.2206 17.8651 11.9393C18.1464 11.658 18.528 11.5 18.9258 11.5C19.3236 11.5 19.7051 11.658 19.9864 11.9393C20.2677 12.2206 20.4258 12.6022 20.4258 13V17C20.4258 17.3978 20.2677 17.7794 19.9864 18.0607C19.7051 18.342 19.3236 18.5 18.9258 18.5ZM11.4258 17C11.4258 17.3978 11.5838 17.7794 11.8651 18.0607C12.1464 18.342 12.528 18.5 12.9258 18.5C13.3236 18.5 13.7051 18.342 13.9864 18.0607C14.2677 17.7794 14.4258 17.3978 14.4258 17V13C14.4258 12.6022 14.2677 12.2206 13.9864 11.9393C13.7051 11.658 13.3236 11.5 12.9258 11.5C12.528 11.5 12.1464 11.658 11.8651 11.9393C11.5838 12.2206 11.4258 12.6022 11.4258 13V17ZM26.4258 15C26.4258 14.6022 26.5838 14.2206 26.8651 13.9393C27.1464 13.658 27.528 13.5 27.9258 13.5H36.9258C37.3236 13.5 37.7051 13.658 37.9864 13.9393C38.2677 14.2206 38.4258 14.6022 38.4258 15C38.4258 15.3978 38.2677 15.7794 37.9864 16.0607C37.7051 16.342 37.3236 16.5 36.9258 16.5H27.9258C27.528 16.5 27.1464 16.342 26.8651 16.0607C26.5838 15.7794 26.4258 15.3978 26.4258 15Z" fill="#BEF264"/>
<path d="M42.2338 33.76C42.0118 31.646 40.3178 30 38.2598 30C36.5698 30 35.1238 31.11 34.5378 32.68C34.1741 33.6541 34.1635 34.7249 34.5078 35.706C33.9961 35.6043 33.4665 35.6416 32.9741 35.8139C32.4817 35.9863 32.0444 36.2874 31.7078 36.686C31.1992 37.2818 30.9216 38.0406 30.9258 38.824C30.9258 40.578 32.2698 42 33.9258 42H40.9258C43.1358 42 44.9258 40.104 44.9258 37.764C44.9258 35.91 43.8018 34.336 42.2338 33.762" fill="#BEF264"/>
<path d="M42.2338 33.76C42.0118 31.646 40.3178 30 38.2598 30C36.5698 30 35.1238 31.11 34.5378 32.68C34.1741 33.6541 34.1635 34.7249 34.5078 35.706C33.9961 35.6043 33.4665 35.6416 32.9741 35.8139C32.4817 35.9863 32.0444 36.2874 31.7078 36.686C31.1992 37.2818 30.9216 38.0406 30.9258 38.824C30.9258 40.578 32.2698 42 33.9258 42H40.9258C43.1358 42 44.9258 40.104 44.9258 37.764C44.9258 35.91 43.8018 34.336 42.2338 33.762" fill="#BEF264"/>
</svg>
