<svg width="48" height="48" viewBox="0 0 48 48" fill="none" xmlns="http://www.w3.org/2000/svg">
<path d="M39.5077 29.0188C38.8318 29.0188 38.1777 29.1067 37.5474 29.2569L37.4878 29.1627L29.6558 16.7976C31.3928 15.2322 32.4923 12.9643 32.4923 10.4325C32.4923 5.71072 28.6902 1.88281 24 1.88281C19.3099 1.88281 15.5077 5.71063 15.5077 10.4325C15.5077 12.9643 16.6072 15.2322 18.3442 16.7976L10.5122 29.1627L10.4526 29.2569C9.82228 29.1067 9.16819 29.0188 8.49225 29.0188C3.80222 29.0188 0 32.8466 0 37.5685C0 42.2904 3.80212 46.1182 8.49234 46.1182C13.1825 46.1182 16.9846 42.2904 16.9846 37.5685C16.9846 34.3334 15.1991 31.5193 12.5669 30.067L20.1736 18.0578C21.3245 18.6444 22.6218 18.9822 24 18.9822C25.3782 18.9822 26.6756 18.6444 27.8265 18.0578L35.4331 30.067C32.8009 31.5192 31.0154 34.3334 31.0154 37.5685C31.0154 42.2903 34.8175 46.1182 39.5077 46.1182C44.1979 46.1182 48 42.2904 48 37.5685C48 32.8466 44.1979 29.0188 39.5077 29.0188ZM8.47059 41.6059C6.28444 41.6059 4.51219 39.8337 4.51219 37.6476C4.51219 35.4614 6.28444 33.6892 8.47059 33.6892C10.6567 33.6892 12.4289 35.4614 12.4289 37.6476C12.4289 39.8337 10.6567 41.6059 8.47059 41.6059Z" fill="#605858"/>
</svg>
