<svg width="48" height="48" viewBox="0 0 48 48" fill="none" xmlns="http://www.w3.org/2000/svg">
<rect width="48" height="48" rx="24" fill="#F7FEE7"/>
<path fill-rule="evenodd" clip-rule="evenodd" d="M27.172 12H22.996V17.932C22.4016 17.7886 21.7914 17.7214 21.18 17.732C16.816 17.731 14 20.305 14 24.273C14 28.391 16.655 30.536 21.755 30.541C23.458 30.541 25.033 30.391 27.172 30.011V12ZM21.734 20.977C22.25 20.977 22.654 21.027 23.142 21.177V27.425C22.546 27.5 22.17 27.525 21.708 27.525C19.568 27.525 18.403 26.383 18.403 24.315C18.403 22.19 19.623 20.977 21.734 20.977Z" fill="black"/>
<path d="M34.0002 27.233V18.215H29.8302V25.89C29.8302 29.277 29.6422 30.564 29.0452 31.676C28.4752 32.763 27.5832 33.476 25.7402 34.282L29.6152 36C31.4582 35.138 32.3502 34.357 33.0272 33.12C33.7532 31.832 34.0002 30.338 34.0002 27.233ZM33.5852 12H29.4092V15.993H33.5852V12Z" fill="black"/>
</svg>
