<svg width="48" height="48" viewBox="0 0 48 48" fill="none" xmlns="http://www.w3.org/2000/svg">
<rect width="48" height="48" rx="24" fill="#F7FEE7"/>
<path d="M31.7538 26.5094C31.4159 26.5094 31.0889 26.5533 30.7737 26.6284L30.7439 26.5813L26.8279 20.3988C27.6964 19.6161 28.2462 18.4822 28.2462 17.2163C28.2462 14.8554 26.3451 12.9414 24 12.9414C21.6549 12.9414 19.7538 14.8553 19.7538 17.2163C19.7538 18.4822 20.3036 19.6161 21.1721 20.3988L17.2561 26.5813L17.2263 26.6284C16.9111 26.5533 16.5841 26.5094 16.2461 26.5094C13.9011 26.5094 12 28.4233 12 30.7842C12 33.1452 13.9011 35.0591 16.2462 35.0591C18.5912 35.0591 20.4923 33.1452 20.4923 30.7842C20.4923 29.1667 19.5996 27.7596 18.2835 27.0335L22.0868 21.0289C22.6622 21.3222 23.3109 21.4911 24 21.4911C24.6891 21.4911 25.3378 21.3222 25.9132 21.0289L29.7165 27.0335C28.4004 27.7596 27.5077 29.1667 27.5077 30.7842C27.5077 33.1451 29.4088 35.0591 31.7538 35.0591C34.0989 35.0591 36 33.1452 36 30.7842C36 28.4233 34.0989 26.5094 31.7538 26.5094ZM16.2353 32.803C15.1422 32.803 14.2561 31.9169 14.2561 30.8238C14.2561 29.7307 15.1422 28.8446 16.2353 28.8446C17.3284 28.8446 18.2145 29.7307 18.2145 30.8238C18.2145 31.9169 17.3284 32.803 16.2353 32.803Z" fill="black"/>
</svg>
