<svg width="48" height="48" viewBox="0 0 48 48" fill="none" xmlns="http://www.w3.org/2000/svg">
<rect width="48" height="48" rx="24" fill="#F7FEE7"/>
<path d="M33.7987 29.2801C30.8402 33.2212 24.523 31.8912 20.4717 32.0817C20.4717 32.0817 19.7539 32.1224 19.0326 32.241C19.0326 32.241 19.3058 32.1248 19.6545 32.0038C22.4991 31.02 23.8436 30.8223 25.5727 29.9344C28.82 28.2712 32.0529 24.6465 32.7107 20.8815C31.4741 24.5027 27.714 27.6193 24.2905 28.8847C21.9479 29.7499 17.7097 30.591 17.7085 30.591C17.6509 30.5616 17.5938 30.5312 17.5371 30.5C14.6553 29.098 14.5714 22.8551 19.8066 20.8432C22.1025 19.9613 24.2965 20.4454 26.7781 19.8546C29.4239 19.2255 32.489 17.2424 33.734 14.6494C35.13 18.7929 36.8076 25.2732 33.7987 29.2801ZM33.8491 13.3672C33.5144 14.1698 33.086 14.9299 32.5729 15.6319C31.4576 14.4824 30.1227 13.5685 28.6474 12.9447C27.1722 12.3208 25.5867 11.9995 23.985 12C17.367 12 11.9844 17.3826 11.9844 23.9994C11.9836 25.6499 12.3244 27.2827 12.9853 28.7951C13.6463 30.3076 14.613 31.6668 15.8248 32.7875L16.0884 33.0199C15.8963 32.8275 15.7884 32.5666 15.7886 32.2946C15.7888 32.0226 15.8969 31.7619 16.0893 31.5696C16.2817 31.3774 16.5426 31.2695 16.8145 31.2695C17.0865 31.2696 17.3473 31.3776 17.5396 31.5699C17.7319 31.7622 17.84 32.0231 17.84 32.295C17.8401 32.567 17.7321 32.8278 17.5399 33.0202C17.3477 33.2126 17.0869 33.3208 16.8149 33.3209C16.543 33.3211 16.2821 33.2133 16.0896 33.0211L16.2682 33.1793C18.4255 35.0032 21.1599 36.0027 23.985 36C30.3094 36 35.5039 31.0775 35.9484 24.8657C36.2767 21.8234 35.378 17.9602 33.8491 13.3672Z" fill="black"/>
</svg>
