<svg width="48" height="48" viewBox="0 0 48 48" fill="none" xmlns="http://www.w3.org/2000/svg">
<path d="M27.9659 21.957H32.2039C32.3022 21.957 32.3966 21.9186 32.4663 21.8502C32.536 21.7817 32.5754 21.6889 32.5759 21.5918V17.8665C32.5759 17.7691 32.5367 17.6757 32.467 17.6068C32.3972 17.538 32.3026 17.4993 32.2039 17.4993H27.9659C27.8678 17.4993 27.7737 17.5378 27.7043 17.6062C27.6349 17.6747 27.5959 17.7676 27.5959 17.8645V21.5918C27.5959 21.7932 27.7619 21.957 27.9659 21.957ZM22.0579 11.2371H26.2939C26.3926 11.2371 26.4872 11.1984 26.557 11.1295C26.6267 11.0607 26.6659 10.9673 26.6659 10.8699V7.14257C26.6654 7.04553 26.626 6.95263 26.5563 6.8842C26.4866 6.81576 26.3922 6.77734 26.2939 6.77734H22.0579C21.9598 6.77734 21.8657 6.81582 21.7963 6.88432C21.7269 6.95281 21.6879 7.04571 21.6879 7.14257V10.8699C21.6879 11.0712 21.8519 11.2371 22.0579 11.2371ZM22.0579 16.5971H26.2939C26.3924 16.5965 26.4867 16.5577 26.5564 16.4889C26.626 16.4202 26.6654 16.3271 26.6659 16.2299V12.5045C26.6654 12.4075 26.626 12.3146 26.5563 12.2461C26.4866 12.1777 26.3922 12.1393 26.2939 12.1393H22.0579C21.9598 12.1393 21.8657 12.1778 21.7963 12.2463C21.7269 12.3148 21.6879 12.4077 21.6879 12.5045V16.2299C21.6879 16.4312 21.8519 16.5951 22.0579 16.5971ZM16.1979 16.5971H20.4379C20.5359 16.596 20.6295 16.5569 20.6984 16.4881C20.7673 16.4194 20.8059 16.3266 20.8059 16.2299V12.5045C20.8059 12.4077 20.7669 12.3148 20.6976 12.2463C20.6282 12.1778 20.5341 12.1393 20.4359 12.1393H16.1999C16.1018 12.1393 16.0077 12.1778 15.9383 12.2463C15.8689 12.3148 15.8299 12.4077 15.8299 12.5045V16.2299C15.8299 16.4312 15.9959 16.5951 16.1999 16.5971M10.2719 16.5971H14.5099C14.6082 16.5965 14.7023 16.5576 14.7717 16.4888C14.841 16.42 14.8799 16.3269 14.8799 16.2299V12.5045C14.8799 12.4077 14.8409 12.3148 14.7716 12.2463C14.7022 12.1778 14.6081 12.1393 14.5099 12.1393H10.2719C10.1736 12.1393 10.0793 12.1777 10.0096 12.2461C9.93988 12.3146 9.90045 12.4075 9.89992 12.5045V16.2299C9.89992 16.4312 10.0679 16.5951 10.2719 16.5971ZM22.0579 21.957H26.2939C26.3922 21.957 26.4866 21.9186 26.5563 21.8502C26.626 21.7817 26.6654 21.6889 26.6659 21.5918V17.8665C26.6659 17.7691 26.6267 17.6757 26.557 17.6068C26.4872 17.538 26.3926 17.4993 26.2939 17.4993H22.0579C21.9598 17.4993 21.8657 17.5378 21.7963 17.6062C21.7269 17.6747 21.6879 17.7676 21.6879 17.8645V21.5918C21.6879 21.7932 21.8519 21.957 22.0579 21.957ZM16.1979 21.957H20.4379C20.5357 21.9565 20.6293 21.9178 20.6983 21.8494C20.7672 21.7809 20.8059 21.6883 20.8059 21.5918V17.8665C20.8062 17.8185 20.7969 17.771 20.7785 17.7266C20.7602 17.6821 20.7331 17.6417 20.699 17.6076C20.6648 17.5735 20.6242 17.5464 20.5794 17.5278C20.5346 17.5092 20.4865 17.4995 20.4379 17.4993H16.1979C16.1001 17.4998 16.0065 17.5385 15.9376 17.6069C15.8686 17.6754 15.8299 17.768 15.8299 17.8645V21.5918C15.8299 21.7932 15.9959 21.957 16.1999 21.957M10.2719 21.957H14.5099C14.6081 21.957 14.7022 21.9186 14.7716 21.8501C14.8409 21.7816 14.8799 21.6887 14.8799 21.5918V17.8665C14.8802 17.8185 14.8709 17.771 14.8525 17.7266C14.8342 17.6821 14.8071 17.6417 14.773 17.6076C14.7388 17.5735 14.6982 17.5464 14.6534 17.5278C14.6086 17.5092 14.5605 17.4995 14.5119 17.4993H10.2719C10.1733 17.4993 10.0786 17.538 10.0089 17.6068C9.93911 17.6757 9.89992 17.7691 9.89992 17.8665V21.5918C9.89992 21.7932 10.0679 21.957 10.2719 21.957ZM4.43192 21.957H8.67192C8.7697 21.9565 8.8633 21.9178 8.93226 21.8494C9.00122 21.7809 9.03992 21.6883 9.03992 21.5918V17.8665C9.04019 17.8185 9.03087 17.771 9.01252 17.7266C8.99417 17.6821 8.96714 17.6417 8.93297 17.6076C8.8988 17.5735 8.85815 17.5464 8.81336 17.5278C8.76857 17.5092 8.72051 17.4995 8.67192 17.4993H4.43192C4.33414 17.4998 4.24054 17.5385 4.17158 17.6069C4.10263 17.6754 4.06392 17.768 4.06392 17.8645V21.5918C4.06392 21.7932 4.22592 21.957 4.43192 21.957ZM47.5259 19.6117C47.3959 19.511 46.1819 18.6048 43.6179 18.6048C42.9406 18.6061 42.2673 18.6634 41.5979 18.7766C41.1019 15.4204 38.2919 13.7818 38.1659 13.7108L37.4779 13.3179L37.0259 13.9635C36.4579 14.8282 36.0459 15.7837 35.8019 16.7866C35.3419 18.7016 35.6219 20.502 36.6079 22.04C35.4179 22.6954 33.5079 22.8553 33.1199 22.8691H1.50192C1.10479 22.8691 0.723863 23.0246 0.442673 23.3014C0.161484 23.5782 0.00298088 23.9538 0.00192186 24.3458C-0.0340398 27.0797 0.434953 29.7972 1.38592 32.3651C2.47592 35.1842 4.09592 37.2611 6.20592 38.5325C8.56592 39.9599 12.4059 40.7772 16.7559 40.7772C18.7216 40.7836 20.6835 40.6078 22.6159 40.252C25.3011 39.7632 27.8851 38.8364 30.2619 37.5099C32.2207 36.391 33.9835 34.967 35.4819 33.2929C37.9859 30.4935 39.4779 27.3762 40.5879 24.6064H41.0299C43.7739 24.6064 45.4599 23.5226 46.3899 22.6145C47.0079 22.036 47.4899 21.3312 47.8039 20.5494L47.9999 19.9809L47.5259 19.6117Z" fill="#605858"/>
</svg>
