<svg width="48" height="48" viewBox="0 0 48 48" fill="none" xmlns="http://www.w3.org/2000/svg">
<g clip-path="url(#clip0_831_3603)">
<path d="M37.5927 22.144C37.521 22.0839 36.8734 21.5917 35.4832 21.5917C35.1176 21.5939 34.7528 21.6259 34.3924 21.6876C34.1289 19.8502 32.6065 18.9618 32.5464 18.9114L32.1749 18.6953L31.9352 19.0436C31.6329 19.5165 31.4102 20.0357 31.2759 20.5807C31.0235 21.6256 31.18 22.6099 31.7075 23.4503C31.072 23.8107 30.0417 23.8945 29.8257 23.9046H12.8051C12.699 23.9046 12.594 23.9255 12.496 23.9662C12.3981 24.0069 12.3091 24.0665 12.2343 24.1417C12.1596 24.217 12.1004 24.3062 12.0602 24.4044C12.0201 24.5026 11.9998 24.6077 12.0004 24.7138C11.9776 26.2081 12.23 27.6938 12.745 29.0968C13.3326 30.6338 14.2073 31.7772 15.332 32.4707C16.605 33.2511 18.6787 33.6953 21.0158 33.6953C22.0732 33.6954 23.1283 33.5989 24.1681 33.4071C25.6178 33.1443 27.0122 32.6368 28.2917 31.9064C29.345 31.2943 30.2922 30.5158 31.0967 29.6011C32.451 28.0761 33.2541 26.3705 33.8417 24.8561H34.0815C35.5559 24.8561 36.4671 24.2676 36.9703 23.7633C37.3044 23.4467 37.5661 23.0617 37.7376 22.6346L37.8456 22.3227L37.5927 22.144Z" fill="black"/>
<path d="M14.2361 23.875H16.5689C16.6238 23.875 16.6764 23.8532 16.7152 23.8144C16.754 23.7756 16.7758 23.723 16.7758 23.6681V21.5748C16.7758 21.52 16.754 21.4674 16.7152 21.4286C16.6764 21.3898 16.6238 21.368 16.5689 21.368H14.2361C14.1813 21.368 14.1287 21.3898 14.0899 21.4286C14.0511 21.4674 14.0293 21.52 14.0293 21.5748V23.6661C14.0313 23.7203 14.0538 23.7717 14.0922 23.8101C14.1305 23.8484 14.1819 23.8709 14.2361 23.8729M17.4532 23.875H19.7865C19.8413 23.875 19.8939 23.8532 19.9327 23.8144C19.9715 23.7756 19.9933 23.723 19.9933 23.6681V21.5748C19.9933 21.52 19.9715 21.4674 19.9327 21.4286C19.8939 21.3898 19.8413 21.368 19.7865 21.368H17.4532C17.3983 21.368 17.3457 21.3898 17.3069 21.4286C17.2681 21.4674 17.2463 21.52 17.2463 21.5748V23.6661C17.2484 23.7203 17.2708 23.7717 17.3092 23.8101C17.3475 23.8484 17.399 23.8709 17.4532 23.8729M20.7318 23.875H23.064C23.1189 23.875 23.1715 23.8532 23.2103 23.8144C23.2491 23.7756 23.2709 23.723 23.2709 23.6681V21.5748C23.2709 21.52 23.2491 21.4674 23.2103 21.4286C23.1715 21.3898 23.1189 21.368 23.064 21.368H20.7318C20.6769 21.368 20.6243 21.3898 20.5855 21.4286C20.5467 21.4674 20.5249 21.52 20.5249 21.5748V23.6661C20.524 23.6935 20.5287 23.7208 20.5388 23.7463C20.5488 23.7719 20.564 23.795 20.5834 23.8144C20.6028 23.8338 20.626 23.849 20.6515 23.8591C20.677 23.8692 20.7043 23.8739 20.7318 23.8729M23.9617 23.875H26.295C26.3499 23.875 26.4025 23.8532 26.4413 23.8144C26.4801 23.7756 26.5019 23.723 26.5019 23.6681V21.5748C26.5019 21.52 26.4801 21.4674 26.4413 21.4286C26.4025 21.3898 26.3499 21.368 26.295 21.368H23.9617C23.9069 21.368 23.8543 21.3898 23.8155 21.4286C23.7767 21.4674 23.7549 21.52 23.7549 21.5748V23.6661C23.7549 23.7209 23.7767 23.7736 23.8155 23.8123C23.8543 23.8511 23.9069 23.8729 23.9617 23.8729M17.4532 20.886H19.7865C19.8407 20.884 19.8921 20.8615 19.9305 20.8232C19.9688 20.7848 19.9913 20.7334 19.9933 20.6792V18.5858C19.9933 18.531 19.9715 18.4784 19.9327 18.4396C19.8939 18.4008 19.8413 18.379 19.7865 18.379H17.4532C17.3983 18.379 17.3457 18.4008 17.3069 18.4396C17.2681 18.4784 17.2463 18.531 17.2463 18.5858V20.6771C17.2504 20.7306 17.2735 20.7809 17.3114 20.8188C17.3494 20.8568 17.3997 20.8799 17.4532 20.8839M20.7318 20.886H23.064C23.1182 20.884 23.1696 20.8615 23.208 20.8232C23.2464 20.7848 23.2688 20.7334 23.2709 20.6792V18.5858C23.2709 18.531 23.2491 18.4784 23.2103 18.4396C23.1715 18.4008 23.1189 18.379 23.064 18.379H20.7318C20.6769 18.379 20.6243 18.4008 20.5855 18.4396C20.5467 18.4784 20.5249 18.531 20.5249 18.5858V20.6771C20.5249 20.732 20.5467 20.7846 20.5855 20.8234C20.6243 20.8622 20.6769 20.8839 20.7318 20.8839M23.9617 20.886H26.295C26.3492 20.884 26.4006 20.8615 26.439 20.8232C26.4774 20.7848 26.4998 20.7334 26.5019 20.6792V18.5858C26.4998 18.5316 26.4774 18.4802 26.439 18.4418C26.4006 18.4035 26.3492 18.381 26.295 18.379H23.9617C23.9069 18.379 23.8543 18.4008 23.8155 18.4396C23.7767 18.4784 23.7549 18.531 23.7549 18.5858V20.6771C23.7569 20.7313 23.7794 20.7827 23.8177 20.8211C23.8561 20.8594 23.9075 20.8819 23.9617 20.8839M23.9617 17.8846H26.295C26.3499 17.8846 26.4025 17.8628 26.4413 17.824C26.4801 17.7852 26.5019 17.7326 26.5019 17.6778V15.5819C26.4998 15.5276 26.4774 15.4762 26.439 15.4379C26.4006 15.3995 26.3492 15.377 26.295 15.375H23.9617C23.9069 15.375 23.8543 15.3968 23.8155 15.4356C23.7767 15.4744 23.7549 15.527 23.7549 15.5819V17.6731C23.7571 17.7273 23.7795 17.7786 23.8179 17.817C23.8562 17.8553 23.9076 17.8778 23.9617 17.88M27.2155 23.875H29.5488C29.6036 23.875 29.6562 23.8532 29.695 23.8144C29.7338 23.7756 29.7556 23.723 29.7556 23.6681V21.5748C29.7556 21.52 29.7338 21.4674 29.695 21.4286C29.6562 21.3898 29.6036 21.368 29.5488 21.368H27.2155C27.1606 21.368 27.108 21.3898 27.0692 21.4286C27.0304 21.4674 27.0086 21.52 27.0086 21.5748V23.6661C27.0107 23.7203 27.0331 23.7717 27.0715 23.8101C27.1099 23.8484 27.1613 23.8709 27.2155 23.8729" fill="black"/>
</g>
<defs>
<clipPath id="clip0_831_3603">
<rect width="24" height="24" fill="white" transform="translate(12 12)"/>
</clipPath>
</defs>
</svg>
