<svg width="48" height="48" viewBox="0 0 48 48" fill="none" xmlns="http://www.w3.org/2000/svg">
<path d="M40 44L32.28 40.9C33.68 37.84 34.68 34.68 35.3 31.46L40 44ZM15.72 40.9L8 44L12.7 31.46C13.32 34.68 14.32 37.84 15.72 40.9ZM24 4C24 4 34 8 34 24C34 30.2 32.5 35.5 30.66 39.66C30.3402 40.3612 29.8246 40.955 29.1753 41.3701C28.526 41.7853 27.7706 42.004 27 42H21C20.2294 42.004 19.474 41.7853 18.8247 41.3701C18.1754 40.955 17.6598 40.3612 17.34 39.66C15.52 35.5 14 30.2 14 24C14 8 24 4 24 4ZM24 24C26.2 24 28 22.2 28 20C28 17.8 26.2 16 24 16C21.8 16 20 17.8 20 20C20 22.2 21.8 24 24 24Z" fill="black"/>
</svg>
