<svg width="48" height="48" viewBox="0 0 48 48" fill="none" xmlns="http://www.w3.org/2000/svg">
<g clip-path="url(#clip0_843_2879)">
<path d="M47.0938 21.8594L26.1328 0.90588C25.8457 0.618111 25.5047 0.389796 25.1293 0.234015C24.7539 0.078234 24.3515 -0.00195312 23.945 -0.00195312C23.5386 -0.00195312 23.1361 0.078234 22.7607 0.234015C22.3853 0.389796 22.0443 0.618111 21.7573 0.90588L17.4133 5.25738L22.9363 10.7729C23.585 10.5528 24.2825 10.5189 24.9496 10.6751C25.6166 10.8312 26.2266 11.1712 26.7103 11.6564C27.7423 12.6884 28.0303 14.1719 27.5938 15.4529L32.9068 20.7734C33.5577 20.5467 34.2594 20.5085 34.9311 20.6632C35.6028 20.818 36.2171 21.1593 36.7033 21.6479C38.1493 23.0849 38.1493 25.4129 36.7033 26.8514C36.3623 27.193 35.9574 27.464 35.5116 27.6489C35.0658 27.8338 34.5879 27.929 34.1053 27.929C33.6226 27.929 33.1447 27.8338 32.6989 27.6489C32.2532 27.464 31.8482 27.193 31.5073 26.8514C30.9953 26.3391 30.6452 25.6876 30.5007 24.9779C30.3561 24.2682 30.4234 23.5316 30.6943 22.8599L25.7173 17.9069V30.9614C26.0683 31.1339 26.4043 31.3679 26.6938 31.6574C28.1233 33.1034 28.1233 35.4224 26.6938 36.8609C26.0008 37.5511 25.0626 37.9386 24.0845 37.9386C23.1065 37.9386 22.1682 37.5511 21.4753 36.8609C21.0464 36.4319 20.7303 35.9036 20.555 35.3229C20.3797 34.7423 20.3507 34.1273 20.4705 33.5327C20.5903 32.9381 20.8552 32.3824 21.2417 31.9149C21.6282 31.4475 22.1243 31.0828 22.6858 30.8534V17.6744C22.2379 17.4842 21.8298 17.2114 21.4828 16.8704C20.9666 16.3556 20.6158 15.6984 20.4752 14.9831C20.3347 14.2677 20.4108 13.5267 20.6938 12.8549L15.2713 7.40238L0.896766 21.7694C0.322123 22.3526 0 23.1384 0 23.9571C0 24.7759 0.322123 25.5617 0.896766 26.1449L21.8578 47.0984C22.1448 47.3862 22.4858 47.6145 22.8612 47.7702C23.2366 47.926 23.6391 48.0062 24.0455 48.0062C24.452 48.0062 24.8544 47.926 25.2298 47.7702C25.6052 47.6145 25.9462 47.3862 26.2333 47.0984L47.0923 26.2394C47.38 25.9523 47.6084 25.6114 47.7641 25.2359C47.9199 24.8605 48.0001 24.4581 48.0001 24.0516C48.0001 23.6452 47.9199 23.2427 47.7641 22.8673C47.6084 22.4919 47.38 22.1509 47.0923 21.8639L47.0938 21.8594Z" fill="#605858"/>
</g>
<defs>
<clipPath id="clip0_843_2879">
<rect width="48" height="48" fill="white"/>
</clipPath>
</defs>
</svg>
