<svg width="48" height="48" viewBox="0 0 48 48" fill="none" xmlns="http://www.w3.org/2000/svg">
<path d="M35.5469 22.9287L25.0664 12.452C24.9229 12.3081 24.7524 12.1939 24.5647 12.116C24.377 12.0381 24.1757 11.998 23.9725 11.998C23.7693 11.998 23.5681 12.0381 23.3804 12.116C23.1926 12.1939 23.0222 12.3081 22.8786 12.452L20.7066 14.6277L23.4681 17.3855C23.7925 17.2754 24.1413 17.2585 24.4748 17.3366C24.8083 17.4146 25.1133 17.5846 25.3551 17.8272C25.8711 18.3432 26.0151 19.085 25.7969 19.7255L28.4534 22.3857C28.7788 22.2724 29.1297 22.2533 29.4656 22.3306C29.8014 22.408 30.1085 22.5787 30.3516 22.823C31.0746 23.5415 31.0746 24.7055 30.3516 25.4247C30.1812 25.5955 29.9787 25.731 29.7558 25.8235C29.5329 25.9159 29.2939 25.9635 29.0526 25.9635C28.8113 25.9635 28.5724 25.9159 28.3495 25.8235C28.1266 25.731 27.9241 25.5955 27.7536 25.4247C27.4976 25.1686 27.3226 24.8428 27.2503 24.488C27.1781 24.1331 27.2117 23.7648 27.3471 23.429L24.8586 20.9525V27.4797C25.0341 27.566 25.2021 27.683 25.3469 27.8277C26.0616 28.5507 26.0616 29.7102 25.3469 30.4295C25.0004 30.7746 24.5313 30.9683 24.0423 30.9683C23.5532 30.9683 23.0841 30.7746 22.7376 30.4295C22.5232 30.215 22.3652 29.9508 22.2775 29.6605C22.1899 29.3702 22.1753 29.0627 22.2353 28.7654C22.2952 28.4681 22.4276 28.1902 22.6209 27.9565C22.8141 27.7228 23.0621 27.5404 23.3429 27.4257V20.8362C23.119 20.7411 22.9149 20.6047 22.7414 20.4342C22.4833 20.1768 22.3079 19.8482 22.2376 19.4906C22.1673 19.1329 22.2054 18.7624 22.3469 18.4265L19.6356 15.7002L12.4484 22.8837C12.1611 23.1753 12 23.5682 12 23.9776C12 24.387 12.1611 24.7799 12.4484 25.0715L22.9289 35.5482C23.0724 35.6921 23.2429 35.8063 23.4306 35.8841C23.6183 35.962 23.8195 36.0021 24.0228 36.0021C24.226 36.0021 24.4272 35.962 24.6149 35.8841C24.8026 35.8063 24.9731 35.6921 25.1166 35.5482L35.5461 25.1187C35.69 24.9752 35.8042 24.8047 35.8821 24.617C35.96 24.4293 36 24.2281 36 24.0248C36 23.8216 35.96 23.6204 35.8821 23.4327C35.8042 23.245 35.69 23.0745 35.5461 22.931L35.5469 22.9287Z" fill="black"/>
</svg>
