<svg width="48" height="48" viewBox="0 0 48 48" fill="none" xmlns="http://www.w3.org/2000/svg">
<path d="M47.2006 19.1945L47.1346 19.0205L40.6006 1.96853C40.4666 1.63589 40.2315 1.35379 39.9284 1.16213C39.6253 0.970476 39.2696 0.878959 38.9116 0.900527C38.5545 0.922037 38.212 1.04946 37.9276 1.26653C37.6509 1.49609 37.4492 1.80329 37.3486 2.14853L32.9386 15.6455H15.0736L10.6636 2.14553C10.5694 1.7968 10.3676 1.48668 10.0869 1.25936C9.80615 1.03204 9.46085 0.899099 9.10015 0.879485C8.73946 0.859872 8.38178 0.954582 8.07806 1.15012C7.77434 1.34567 7.54007 1.63207 7.40862 1.96853L0.865622 19.0145L0.799622 19.1855C-0.139747 21.6431 -0.254738 24.3395 0.471986 26.8681C1.19871 29.3968 2.72776 31.6207 4.82862 33.2045L4.84962 33.2225L4.90962 33.2645L14.8636 40.7195L19.7836 44.4455L22.7836 46.7105C23.1342 46.9786 23.5633 47.1239 24.0046 47.1239C24.446 47.1239 24.875 46.9786 25.2256 46.7105L28.2256 44.4455L33.1456 40.7195L43.1596 33.2195L43.1866 33.1985C45.2804 31.6125 46.8038 29.3906 47.5285 26.8659C48.2533 24.3412 48.1403 21.6496 47.2066 19.1945H47.2006Z" fill="#605858"/>
</svg>
