<svg width="48" height="48" viewBox="0 0 48 48" fill="none" xmlns="http://www.w3.org/2000/svg">
<g clip-path="url(#clip0_831_3600)">
<path d="M35.6008 21.151L35.5678 21.064L32.3008 12.538C32.2338 12.3717 32.1162 12.2306 31.9647 12.1348C31.8131 12.0389 31.6353 11.9932 31.4563 12.004C31.2778 12.0147 31.1065 12.0784 30.9643 12.187C30.8259 12.3018 30.7251 12.4554 30.6748 12.628L28.4698 19.3765H19.5373L17.3323 12.6265C17.2852 12.4521 17.1843 12.2971 17.0439 12.1834C16.9036 12.0697 16.7309 12.0033 16.5506 11.9935C16.3702 11.9836 16.1914 12.031 16.0395 12.1288C15.8877 12.2265 15.7705 12.3697 15.7048 12.538L12.4333 21.061L12.4003 21.1465C11.9306 22.3753 11.8731 23.7235 12.2365 24.9878C12.5998 26.2521 13.3644 27.3641 14.4148 28.156L14.4253 28.165L14.4553 28.186L19.4323 31.9135L21.8923 33.7765L23.3923 34.909C23.5676 35.043 23.7821 35.1157 24.0028 35.1157C24.2235 35.1157 24.438 35.043 24.6133 34.909L26.1133 33.7765L28.5733 31.9135L33.5803 28.1635L33.5938 28.153C34.6407 27.36 35.4024 26.249 35.7648 24.9867C36.1271 23.7243 36.0707 22.3785 35.6038 21.151H35.6008Z" fill="black"/>
</g>
<defs>
<clipPath id="clip0_831_3600">
<rect width="24" height="24" fill="white" transform="translate(12 12)"/>
</clipPath>
</defs>
</svg>
