<svg width="48" height="48" viewBox="0 0 48 48" fill="none" xmlns="http://www.w3.org/2000/svg">
<g clip-path="url(#clip0_831_3607)">
<path d="M30.375 12H17.625C14.5184 12 12 14.5184 12 17.625V30.375C12 33.4816 14.5184 36 17.625 36H30.375C33.4816 36 36 33.4816 36 30.375V17.625C36 14.5184 33.4816 12 30.375 12Z" fill="black"/>
<path d="M18.5625 32.4375V27.616L21.2746 30.0268L18.5625 32.4375ZM27 32.4375V25.2385C26.9883 24.6759 26.7173 24 25.4933 24C23.0423 24 20.2928 25.2328 20.2654 25.2451L18.5625 26.0166V15.5625H20.9732V22.4062C22.1767 22.0145 23.8591 21.5893 25.4933 21.5893C26.9834 21.5893 27.8753 22.1751 28.3612 22.6666C29.398 23.7152 29.4122 25.051 29.4108 25.2053V32.4375H27ZM27.6027 19.4799H25.1919C26.1394 18.2368 26.7342 16.9288 27 15.5625H29.4107C29.248 16.9318 28.6929 18.2444 27.6027 19.4799Z" fill="#F7FEE7"/>
</g>
<defs>
<clipPath id="clip0_831_3607">
<rect width="24" height="24" fill="white" transform="translate(12 12)"/>
</clipPath>
</defs>
</svg>
