<svg width="47" height="52" viewBox="0 0 47 52" fill="none" xmlns="http://www.w3.org/2000/svg">
<path d="M0 0V51.1808H46.106V0H0ZM25.0907 39.9164C25.0907 44.8974 22.4561 47.1708 18.6173 47.1708C15.1491 47.1708 13.1423 45.183 12.1131 42.7725L15.6431 40.4077C16.3223 41.7443 16.9398 42.8753 18.4321 42.8753C19.8523 42.8753 20.758 42.2584 20.758 39.8479V23.4997H25.0907V39.9164ZM35.3411 47.1708C31.3171 47.1708 28.7133 45.0459 27.4475 42.2584L30.9775 39.9964C31.9037 41.6758 33.1181 42.921 35.2484 42.921C37.0392 42.921 38.1918 41.9271 38.1918 40.5448C38.1918 38.8997 37.0186 38.317 35.0323 37.346L33.9517 36.8319C30.8231 35.3581 28.7545 33.496 28.7545 29.5774C28.7545 25.9674 31.2347 23.2256 35.0941 23.2256C37.8522 23.2256 39.8282 24.288 41.2484 27.0755L37.8728 29.4746C37.1318 28.0009 36.329 27.4183 35.0838 27.4183C33.8179 27.4183 33.0152 28.3094 33.0152 29.4746C33.0152 30.9141 33.8179 31.4967 35.6807 32.3992L36.7613 32.9133C40.4456 34.6613 42.5142 36.4549 42.5142 40.4762C42.5142 44.7946 39.4474 47.1708 35.3411 47.1708Z" fill="#605858"/>
</svg>
