<svg width="48" height="48" viewBox="0 0 48 48" fill="none" xmlns="http://www.w3.org/2000/svg">
<g clip-path="url(#clip0_831_3566)">
<path d="M30.375 12H17.625C14.5184 12 12 14.5184 12 17.625V30.375C12 33.4816 14.5184 36 17.625 36H30.375C33.4816 36 36 33.4816 36 30.375V17.625C36 14.5184 33.4816 12 30.375 12Z" fill="black"/>
<path d="M21.5282 29.1197C21.5282 29.1197 20.8082 29.5579 22.0293 29.6832C23.5038 29.8711 24.2834 29.8397 25.9112 29.5269C25.9112 29.5269 26.3494 29.809 26.9443 30.0279C23.281 31.5931 18.6477 29.9339 21.5282 29.1197ZM21.0586 27.0849C21.0586 27.0849 20.2758 27.6798 21.4968 27.8048C23.0932 27.9612 24.3459 27.9927 26.5061 27.5547C26.5061 27.5547 26.7882 27.868 27.2575 28.0244C22.8435 29.3393 17.8966 28.1494 21.0586 27.0852V27.0849ZM29.6995 30.6539C29.6995 30.6539 30.2317 31.0921 29.1046 31.4367C27.0069 32.0628 20.3072 32.251 18.4287 31.4367C17.7716 31.1547 19.0238 30.7475 19.4305 30.6853C19.8376 30.5914 20.0566 30.5914 20.0566 30.5914C19.3366 30.0904 15.2664 31.6245 17.9903 32.066C25.4727 33.2873 31.6405 31.5339 29.6993 30.6571L29.6995 30.6539ZM21.8725 24.9557C21.8725 24.9557 18.4599 25.7699 20.6512 26.0514C21.5904 26.1763 23.4375 26.1453 25.1595 26.02C26.5684 25.8949 27.9804 25.6443 27.9804 25.6443C27.9804 25.6443 27.4794 25.8635 27.1351 26.0825C23.6571 26.9912 16.9885 26.5842 18.8984 25.6449C20.5269 24.8621 21.8725 24.9557 21.8725 24.9557ZM27.9772 28.3683C31.4841 26.5524 29.8556 24.7992 28.7286 25.0185C28.4465 25.0811 28.3215 25.1436 28.3215 25.1436C28.3215 25.1436 28.4154 24.9557 28.6346 24.8936C30.8574 24.1107 32.6109 27.2416 27.9147 28.4626C27.9147 28.4626 27.9461 28.4312 27.9772 28.3687V28.3683ZM22.2168 33.3146C25.5981 33.5338 30.7638 33.1895 30.8891 31.5925C30.8891 31.5925 30.6391 32.2185 28.1029 32.6882C25.2227 33.2203 21.6533 33.1578 19.5559 32.8132C19.5559 32.8132 19.9941 33.1888 22.2171 33.3142L22.2168 33.3146Z" fill="white"/>
<path d="M25.8454 14.625C25.8454 14.625 27.7864 16.5974 23.9984 19.5713C20.9614 21.9818 23.3092 23.3595 23.9984 24.9245C22.2138 23.3281 20.9307 21.9189 21.8068 20.604C23.0935 18.664 26.6308 17.7248 25.8454 14.625ZM24.8437 23.6102C25.7515 24.6433 24.5937 25.5826 24.5937 25.5826C24.5937 25.5826 26.9103 24.3933 25.8461 22.9213C24.8754 21.5124 24.1241 20.8236 28.1942 18.4752C28.1942 18.4752 21.776 20.0716 24.8444 23.6095L24.8437 23.6102Z" fill="#BEF264"/>
</g>
<defs>
<clipPath id="clip0_831_3566">
<rect width="24" height="24" fill="white" transform="translate(12 12)"/>
</clipPath>
</defs>
</svg>
