<svg width="48" height="48" viewBox="0 0 48 48" fill="none" xmlns="http://www.w3.org/2000/svg">
<path d="M12 10.6797V37.3213H36V10.6797H12ZM25.0607 31.4578C25.0607 34.0506 23.6893 35.234 21.6911 35.234C19.8857 35.234 18.8411 34.1992 18.3054 32.9445L20.1429 31.7135C20.4964 32.4093 20.8179 32.998 21.5946 32.998C22.3339 32.998 22.8054 32.6769 22.8054 31.4221V22.9122H25.0607V31.4578ZM30.3964 35.234C28.3018 35.234 26.9464 34.1279 26.2875 32.6769L28.125 31.4994C28.6071 32.3736 29.2393 33.0218 30.3482 33.0218C31.2804 33.0218 31.8804 32.5044 31.8804 31.7848C31.8804 30.9285 31.2696 30.6252 30.2357 30.1197L29.6732 29.8521C28.0446 29.085 26.9679 28.1157 26.9679 26.0759C26.9679 24.1967 28.2589 22.7695 30.2679 22.7695C31.7036 22.7695 32.7321 23.3226 33.4714 24.7736L31.7143 26.0224C31.3286 25.2553 30.9107 24.952 30.2625 24.952C29.6036 24.952 29.1857 25.4158 29.1857 26.0224C29.1857 26.7717 29.6036 27.075 30.5732 27.5448L31.1357 27.8124C33.0536 28.7223 34.1304 29.6559 34.1304 31.7492C34.1304 33.9971 32.5339 35.234 30.3964 35.234Z" fill="black"/>
</svg>
