<svg width="48" height="54" viewBox="0 0 48 54" fill="none" xmlns="http://www.w3.org/2000/svg">
<g clip-path="url(#clip0_843_2895)">
<path d="M34.348 33.0012C35.573 32.2945 37.273 31.6828 37.273 31.6828C37.273 31.6828 32.4355 32.4211 27.623 32.7586C21.7355 33.1699 15.4105 33.2543 12.2355 32.8957C4.72304 32.052 16.3605 29.7211 16.3605 29.7211C16.3605 29.7211 11.848 29.468 6.28554 31.725C-0.276956 34.4039 22.5355 35.6273 34.348 33.0012ZM23.673 29.6156C21.298 25.1121 13.2855 21.157 23.673 14.2383C36.6305 5.61094 29.9855 0 29.9855 0C32.673 8.91211 20.5355 11.6121 16.148 17.1492C13.1605 20.9355 17.6105 24.9961 23.673 29.6156ZM37.998 11.032C38.0105 11.032 16.098 15.6516 26.5605 25.8188C29.648 28.8141 25.748 31.5141 25.748 31.5141C25.748 31.5141 33.5855 28.0969 29.9855 23.8254C26.623 19.8387 24.048 17.8559 37.998 11.032ZM37.2355 39.5613C37.1672 39.6618 37.0831 39.7541 36.9855 39.8355C53.023 36.2813 47.123 27.2953 39.4605 29.5734C39.0467 29.7017 38.6891 29.9336 38.4355 30.2379C38.883 30.1013 39.3428 29.9954 39.8105 29.9215C43.6855 29.2359 49.248 34.2984 37.2355 39.5613ZM43.1305 46.132C43.1305 46.132 44.943 47.3871 41.143 48.368C33.9055 50.2137 11.043 50.7727 4.69304 48.4418C2.40554 47.6086 6.69304 46.4379 8.04304 46.1953C9.44304 45.9422 10.2555 45.9844 10.2555 45.9844C7.71804 44.4762 -6.15696 48.948 3.20554 50.2242C28.7355 53.7258 49.7555 48.6527 43.1305 46.132ZM15.1855 41.7656C5.34804 44.0859 21.173 48.8742 33.698 44.3496C32.4765 43.9492 31.2973 43.4623 30.173 42.8941C24.5855 43.7906 21.998 43.8539 16.923 43.3688C12.7355 42.968 15.1855 41.7656 15.1855 41.7656ZM37.6605 52.0172C27.823 53.5781 15.6855 53.3988 8.49804 52.3969C8.49804 52.3863 9.97304 53.4199 17.548 53.8312C29.073 54.4535 46.773 53.4832 47.1855 48.8848C47.1855 48.8848 46.3855 50.625 37.6605 52.0172ZM32.2105 37.2305C24.8105 38.4328 20.523 38.4012 15.1105 37.9266C10.923 37.5574 13.6605 35.8488 13.6605 35.8488C2.81054 38.8863 19.6855 42.3246 34.848 38.5805C33.8681 38.2885 32.9702 37.8289 32.2105 37.2305Z" fill="#605858"/>
</g>
<defs>
<clipPath id="clip0_843_2895">
<rect width="48" height="54" fill="white"/>
</clipPath>
</defs>
</svg>
