<svg width="48" height="48" viewBox="0 0 48 48" fill="none" xmlns="http://www.w3.org/2000/svg">
<g clip-path="url(#clip0_831_3583)">
<path d="M30.375 12H17.625C14.5184 12 12 14.5184 12 17.625V30.375C12 33.4816 14.5184 36 17.625 36H30.375C33.4816 36 36 33.4816 36 30.375V17.625C36 14.5184 33.4816 12 30.375 12Z" fill="black"/>
<mask id="mask0_831_3583" style="mask-type:luminance" maskUnits="userSpaceOnUse" x="15" y="15" width="18" height="18">
<path d="M15.5625 15.5625H32.4375V32.4375H15.5625V15.5625Z" fill="white"/>
</mask>
<g mask="url(#mask0_831_3583)">
<path fill-rule="evenodd" clip-rule="evenodd" d="M31.1065 28.7078C30.1887 28.6823 29.4766 28.7763 28.8799 29.0273C28.7081 29.0963 28.4323 29.0963 28.4097 29.3126C28.5015 29.4034 28.5126 29.5519 28.5931 29.6777C28.7307 29.906 28.972 30.2135 29.1898 30.373L29.9243 30.8978C30.3718 31.1713 30.8768 31.3312 31.3128 31.6049C31.5654 31.7647 31.8178 31.97 32.0703 32.1413C32.1989 32.2325 32.2768 32.3811 32.4376 32.4378V32.4033C32.3574 32.301 32.3342 32.1528 32.2543 32.0382L31.9095 31.7077C31.577 31.2629 31.1636 30.8748 30.716 30.5557C30.3487 30.3048 29.5456 29.9627 29.3964 29.5409L29.3738 29.5153C29.6259 29.4898 29.9243 29.401 30.1655 29.3326C30.556 29.2303 30.9115 29.2528 31.3128 29.1502L31.8641 28.9905V28.8882C31.6574 28.683 31.5083 28.4092 31.2904 28.2155C30.7052 27.7136 30.0621 27.223 29.3964 26.8125C29.0407 26.5845 28.5815 26.4359 28.2028 26.2424C28.0648 26.1739 27.8355 26.1397 27.7553 26.0257C27.5482 25.7752 27.4337 25.444 27.2846 25.1473L26.3436 23.1628C26.1371 22.718 26.0105 22.2731 25.7584 21.8626C24.5761 19.9236 23.2905 18.749 21.3165 17.5968C20.8921 17.3572 20.3872 17.2542 19.8503 17.129L18.9897 17.083C18.8057 17.0032 18.6223 16.7864 18.4616 16.6837C17.8074 16.273 16.1203 15.3835 15.6378 16.5559C15.328 17.2972 16.0971 18.027 16.3582 18.4036C16.5537 18.6659 16.8058 18.9623 16.9438 19.259C17.021 19.4527 17.0468 19.6582 17.1273 19.8636C17.3107 20.3653 17.483 20.9244 17.724 21.3923C17.8527 21.6318 17.9878 21.883 18.1484 22.0996C18.2403 22.2274 18.4011 22.2821 18.4353 22.4873C18.2745 22.7156 18.2635 23.0574 18.1716 23.343C17.7583 24.6319 17.919 26.2286 18.5042 27.1776C18.6882 27.4626 19.1216 28.0901 19.7097 27.8504C20.2261 27.6451 20.1109 26.995 20.2601 26.4247C20.2948 26.288 20.2717 26.1967 20.3403 26.1052V26.1307L20.811 27.0773C21.1668 27.6362 21.7868 28.218 22.303 28.606C22.5782 28.8113 22.7964 29.1652 23.1405 29.2904V29.2559H23.1179C23.0489 29.1536 22.9455 29.1076 22.8538 29.0278C22.6472 28.8226 22.4177 28.5715 22.2569 28.3435C21.7752 27.7049 21.3508 26.9976 20.9718 26.2677C20.788 25.9142 20.6272 25.5263 20.4785 25.1728C20.409 25.0358 20.409 24.8302 20.2946 24.7623C20.1222 25.0128 19.8702 25.2301 19.7433 25.5379C19.5252 26.0282 19.5026 26.6328 19.4223 27.2602C19.376 27.2716 19.3965 27.2602 19.376 27.2857C19.0092 27.1947 18.8826 26.8178 18.7451 26.4988C18.4008 25.689 18.3432 24.3888 18.6416 23.4534C18.7218 23.2139 19.0665 22.4611 18.9289 22.233C18.8595 22.0163 18.6305 21.891 18.5039 21.7197C18.3548 21.503 18.1946 21.2294 18.0912 20.9899C17.8159 20.3508 17.6783 19.6439 17.3796 19.0052C17.2415 18.7086 17.0008 18.4005 16.8055 18.127C16.5873 17.819 16.3468 17.6021 16.1745 17.2373C16.1172 17.1096 16.0369 16.9066 16.1287 16.7695C16.1514 16.6783 16.1976 16.6417 16.289 16.6213C16.4381 16.4934 16.8631 16.6555 17.0123 16.7235C17.4367 16.8948 17.7925 17.0543 18.1483 17.2936C18.309 17.4076 18.4813 17.6244 18.6879 17.6817H18.9292C19.2965 17.7614 19.7094 17.7072 20.0533 17.8095C20.6617 18.0037 21.2124 18.2886 21.7063 18.5968C23.2095 19.5435 24.4494 20.8894 25.2868 22.4978C25.4245 22.7602 25.4818 22.9997 25.6084 23.2734C25.8497 23.8326 26.1481 24.4027 26.3886 24.9504C26.6299 25.4865 26.8593 26.0344 27.2036 26.4791C27.3759 26.7187 28.0642 26.8439 28.3739 26.9694C28.6036 27.0717 28.9591 27.1638 29.1662 27.289C29.5561 27.5286 29.9464 27.8023 30.3134 28.0646C30.4968 28.2011 31.071 28.4864 31.1052 28.7139L31.1065 28.7078ZM19.4024 18.7962C19.2439 18.7948 19.0859 18.814 18.9323 18.8532V18.8788H18.9549C19.0468 19.0613 19.2075 19.1869 19.3222 19.3466L19.5864 19.8941L19.6091 19.8686C19.7698 19.7546 19.8503 19.5721 19.8503 19.2986C19.7814 19.2188 19.77 19.1388 19.7127 19.059C19.6438 18.945 19.4946 18.8877 19.4024 18.7968V18.7962Z" fill="#F7FEE7"/>
</g>
</g>
<defs>
<clipPath id="clip0_831_3583">
<rect width="24" height="24" fill="white" transform="translate(12 12)"/>
</clipPath>
</defs>
</svg>
