<svg width="48" height="48" viewBox="0 0 48 48" fill="none" xmlns="http://www.w3.org/2000/svg">
<g clip-path="url(#clip0_843_2812)">
<path d="M36.75 0H11.25C5.0368 0 0 5.0368 0 11.25V36.75C0 42.9632 5.0368 48 11.25 48H36.75C42.9632 48 48 42.9632 48 36.75V11.25C48 5.0368 42.9632 0 36.75 0Z" fill="#605858"/>
<mask id="mask0_843_2812" style="mask-type:luminance" maskUnits="userSpaceOnUse" x="7" y="7" width="34" height="34">
<path d="M7.125 7.125H40.875V40.875H7.125V7.125Z" fill="white"/>
</mask>
<g mask="url(#mask0_843_2812)">
<path fill-rule="evenodd" clip-rule="evenodd" d="M38.2125 33.4135C36.3768 33.3625 34.9528 33.5506 33.7593 34.0527C33.4156 34.1907 32.8642 34.1907 32.8188 34.6233C33.0026 34.8048 33.0247 35.1018 33.1858 35.3534C33.4608 35.81 33.9435 36.425 34.3792 36.7441L35.8481 37.7937C36.7432 38.3407 37.7531 38.6604 38.6251 39.2079C39.1303 39.5274 39.635 39.938 40.1401 40.2805C40.3974 40.463 40.5532 40.7602 40.8748 40.8736V40.8046C40.7143 40.6 40.668 40.3036 40.508 40.0745L39.8186 39.4134C39.1535 38.5239 38.3266 37.7476 37.4315 37.1095C36.6969 36.6076 35.0908 35.9234 34.7923 35.0799L34.7471 35.0287C35.2513 34.9777 35.8481 34.8001 36.3305 34.6632C37.1115 34.4587 37.8225 34.5037 38.6251 34.2985L39.7276 33.979V33.7745C39.3144 33.364 39.0161 32.8164 38.5803 32.429C37.41 31.4253 36.1237 30.4441 34.7923 29.623C34.0809 29.167 33.1625 28.8699 32.4052 28.4829C32.129 28.3458 31.6706 28.2774 31.5101 28.0494C31.0959 27.5484 30.867 26.8861 30.5686 26.2927L28.6867 22.3237C28.2736 21.434 28.0205 20.5443 27.5163 19.7232C25.1518 15.8452 22.5806 13.496 18.6326 11.1916C17.7838 10.7125 16.7739 10.5065 15.7001 10.256L13.9788 10.1641C13.611 10.0045 13.244 9.57086 12.9226 9.36536C11.6143 8.54411 8.24002 6.76511 7.27514 9.1098C6.65545 10.5924 8.1937 12.052 8.71589 12.8052C9.10683 13.3299 9.61102 13.9227 9.8872 14.516C10.0415 14.9035 10.0931 15.3145 10.2541 15.7252C10.6209 16.7287 10.9655 17.8469 11.4476 18.7825C11.7048 19.2616 11.975 19.7641 12.2964 20.1972C12.4801 20.4528 12.8017 20.5623 12.8701 20.9727C12.5486 21.4293 12.5265 22.1129 12.3427 22.684C11.516 25.2618 11.8376 28.4553 13.008 30.3532C13.3758 30.9232 14.2426 32.1783 15.4188 31.6989C16.4518 31.2882 16.2213 29.9881 16.5196 28.8474C16.589 28.574 16.5429 28.3914 16.6801 28.2084V28.2595L17.6216 30.1527C18.3331 31.2704 19.5731 32.434 20.6055 33.2101C21.156 33.6207 21.5923 34.3284 22.2806 34.5789V34.5099H22.2354C22.0974 34.3053 21.8906 34.2132 21.707 34.0537C21.294 33.6432 20.835 33.1411 20.5134 32.6851C19.5498 31.4079 18.701 29.9932 17.9431 28.5335C17.5755 27.8264 17.2539 27.0507 16.9565 26.3437C16.8176 26.0697 16.8176 25.6585 16.5886 25.5226C16.2438 26.0236 15.7398 26.4582 15.4861 27.0738C15.0498 28.0544 15.0046 29.2636 14.8441 30.5184C14.7515 30.5412 14.7926 30.5184 14.7515 30.5694C14.0178 30.3875 13.7647 29.6337 13.4896 28.9957C12.8011 27.376 12.6858 24.7756 13.2826 22.9049C13.4431 22.4259 14.1326 20.9202 13.8573 20.464C13.7186 20.0305 13.2605 19.78 13.0074 19.4375C12.7091 19.004 12.3886 18.4569 12.1818 17.9778C11.6313 16.6996 11.3561 15.2859 10.7587 14.0084C10.4825 13.4152 10.001 12.799 9.61045 12.2521C9.17414 11.636 8.6932 11.2023 8.34858 10.4727C8.23383 10.2172 8.07333 9.81123 8.25689 9.53711C8.30227 9.35467 8.3947 9.28155 8.57752 9.24067C8.87564 8.98492 9.72577 9.30911 10.0241 9.44505C10.8729 9.78761 11.5845 10.1067 12.296 10.5852C12.6176 10.8132 12.9622 11.2469 13.3753 11.3615H13.8579C14.5925 11.5209 15.4183 11.4125 16.106 11.617C17.3229 12.0055 18.4243 12.5752 19.412 13.1917C22.4186 15.085 24.8983 17.7768 26.5732 20.9937C26.8485 21.5184 26.9632 21.9974 27.2163 22.5449C27.699 23.6632 28.2958 24.8034 28.7767 25.8989C29.2593 26.971 29.7181 28.0668 30.4066 28.9563C30.7513 29.4354 32.1279 29.6859 32.7474 29.9369C33.2068 30.1415 33.9178 30.3256 34.332 30.5761C35.1118 31.0552 35.8923 31.6027 36.6264 32.1273C36.9931 32.4003 38.1416 32.9709 38.2098 33.4259L38.2125 33.4135ZM14.8044 13.5905C14.4873 13.5877 14.1713 13.626 13.8641 13.7045V13.7557H13.9093C14.093 14.1207 14.4146 14.3718 14.6439 14.6913L15.1723 15.7863L15.2176 15.7353C15.539 15.5073 15.7001 15.1422 15.7001 14.5953C15.5623 14.4357 15.5396 14.2756 15.4248 14.116C15.287 13.888 14.9887 13.7735 14.8044 13.5916V13.5905Z" fill="white"/>
</g>
</g>
<defs>
<clipPath id="clip0_843_2812">
<rect width="48" height="48" fill="white"/>
</clipPath>
</defs>
</svg>
