<svg width="48" height="48" viewBox="0 0 48 48" fill="none" xmlns="http://www.w3.org/2000/svg">
<path fill-rule="evenodd" clip-rule="evenodd" d="M24.2783 35.5411C24.6143 35.8189 25.0082 35.9374 25.4335 35.9594C25.6093 35.9686 25.7903 35.9599 25.9633 35.9284C26.2378 35.8786 26.5116 35.8159 26.7786 35.7355C27.3223 35.5714 27.7922 35.2879 28.143 34.8301C28.3429 34.5691 28.507 34.2869 28.6123 33.9749C28.6993 33.7174 28.7811 33.4574 28.8462 33.1939C28.8975 32.9864 28.923 32.7721 28.9542 32.56C28.975 32.4198 28.9875 32.278 29.0005 32.1364C29.0215 31.9067 29.0434 31.6774 29.0586 31.4472C29.0693 31.2871 29.0689 31.1262 29.0751 30.9659C29.0771 30.9169 29.085 30.8684 29.0897 30.8198C29.0936 30.7746 29.1165 30.7591 29.1627 30.7598C29.3246 30.7622 29.487 30.7664 29.6488 30.7591C29.8302 30.751 30.0128 30.7431 30.1913 30.7133C30.4453 30.6709 30.6973 30.6171 30.9465 30.5521C31.2405 30.475 31.5103 30.3372 31.7702 30.1804C32.0725 29.9976 32.3485 29.7833 32.5718 29.5071C32.7666 29.2668 32.8588 28.9881 32.8118 28.6842C32.7435 28.2426 32.3725 27.9533 31.941 27.9336C31.7847 27.9265 31.626 27.943 31.4704 27.9627C31.282 27.9867 31.0963 28.0291 30.9085 28.057C30.7787 28.0765 30.6473 28.0851 30.5179 28.0986L30.5143 28.0817C30.7562 27.6248 31.0082 27.1731 31.237 26.71C31.4127 26.3545 31.5627 25.9864 31.7177 25.6208C31.9746 25.0156 32.1795 24.3918 32.3494 23.7574C32.512 23.1503 32.6511 22.5366 32.6952 21.9066C32.7128 21.6552 32.725 21.4026 32.7233 21.1508C32.7221 20.9498 32.7004 20.7486 32.6803 20.5484C32.6575 20.3189 32.5881 20.1014 32.4921 19.8921C32.3657 19.6161 32.1694 19.3898 31.963 19.1749C31.7978 19.0028 31.6159 18.8461 31.4357 18.6893C31.1786 18.4658 30.8895 18.2871 30.5895 18.1287C30.2495 17.948 29.8892 17.8083 29.5163 17.7124C29.289 17.6552 29.0603 17.6039 28.8304 17.5585C28.7486 17.542 28.6662 17.5 28.5838 17.5H27.0336C26.9775 17.5 26.922 17.5368 26.8656 17.5429C26.4946 17.5834 26.1282 17.6591 25.7715 17.7689C25.6384 17.8099 25.5169 17.7859 25.3903 17.7741C25.2932 17.7651 25.1978 17.7402 25.1007 17.7353C24.7311 17.7169 24.3612 17.6903 23.9914 17.6942C23.6374 17.698 23.287 17.7565 22.9444 17.8536C22.6577 17.9354 22.377 18.0346 22.1198 18.1855C22.0099 18.25 21.9225 18.2378 21.8087 18.2052C21.4265 18.0933 21.0409 17.993 20.6526 17.9044C20.4105 17.8503 20.1613 17.8229 19.914 17.7974C19.6767 17.7727 19.4384 17.7579 19.1998 17.7529C18.967 17.7479 18.7326 17.7481 18.5007 17.7687C18.1315 17.8015 17.7694 17.8765 17.4173 17.9976C17.0292 18.1305 16.6665 18.3284 16.3448 18.5828C16.0167 18.8425 15.7534 19.1592 15.5421 19.5213C15.3192 19.9032 15.166 20.3121 15.0711 20.7413C15.0195 20.974 15.0385 21.2132 15.003 21.4495C14.9922 21.5226 15.0141 21.5961 15.0141 21.6696V22.6981C15.0141 22.7663 14.994 22.8348 15.0027 22.9034C15.0238 23.0682 15.0165 23.2343 15.0445 23.398C15.0883 23.6571 15.1279 23.9153 15.1812 24.1726C15.2556 24.532 15.3267 24.8911 15.4092 25.2488C15.4689 25.5093 15.5344 25.7683 15.6057 26.0256C15.7144 26.419 15.8205 26.8129 15.9437 27.2016C16.0583 27.5629 16.1888 27.919 16.3191 28.2752C16.4978 28.7678 16.7166 29.2449 16.9735 29.7016C17.1975 30.0974 17.4531 30.4681 17.7962 30.7728C18.0225 30.9738 18.274 31.1281 18.5667 31.2053C18.7953 31.2662 19.0349 31.2729 19.2666 31.2248C19.5351 31.1703 19.786 31.0501 19.9969 30.8751C20.0217 30.8551 20.0485 30.8395 20.0779 30.8766C20.1893 31.0176 20.3382 31.1117 20.494 31.1929C20.9143 31.4123 21.3724 31.4781 21.8376 31.5048C21.9505 31.5111 22.0641 31.495 22.1775 31.492C22.399 31.4858 22.6138 31.4427 22.8252 31.3816C22.9362 31.3495 23.0443 31.3086 23.1572 31.2708C23.163 31.3909 23.1705 31.5064 23.1743 31.6221L23.1898 32.2527C23.1928 32.3487 23.1966 32.4447 23.2054 32.5403C23.2283 32.7867 23.2506 33.0331 23.28 33.2787C23.3003 33.448 23.3217 33.6184 23.3614 33.7838C23.4414 34.1171 23.5507 34.4426 23.688 34.7566C23.8194 35.0614 24.0218 35.3304 24.2783 35.5411ZM23.605 32.3971C23.5917 32.101 23.5817 31.8048 23.5752 31.5085C23.5673 31.1444 23.5647 30.7801 23.5596 30.4159L23.5587 30.4021C23.3736 30.5132 23.1912 30.6347 22.9982 30.7351C22.7719 30.8526 22.5263 30.9207 22.2718 30.94C22.0725 30.955 21.8702 30.9687 21.6718 30.9529C21.3463 30.9265 21.0208 30.8757 20.7295 30.7152C20.6113 30.6501 20.488 30.5708 20.4064 30.4671C20.2112 30.2179 20.3048 29.9031 20.5992 29.7516C20.8026 29.6466 21.0246 29.6029 21.2451 29.5519C21.437 29.5084 21.6269 29.4565 21.8143 29.3963C21.9992 29.3357 22.1158 29.1858 22.2312 29.0386L22.4138 28.8038L22.1942 28.7809C21.9763 28.7607 21.7684 28.7005 21.5697 28.6124C21.3998 28.5372 21.3972 28.5289 21.2723 28.6643C21.0642 28.8903 20.8617 29.1218 20.6575 29.3517C20.5073 29.5208 20.3582 29.6909 20.2084 29.8606C20.0607 30.0284 19.9219 30.2056 19.7623 30.3616C19.5257 30.5933 19.2403 30.7326 18.8998 30.7169C18.6814 30.7067 18.4815 30.6302 18.3015 30.5052C17.9305 30.2468 17.6805 29.8849 17.4527 29.5052C17.1612 29.0185 16.9371 28.5001 16.7457 27.9676C16.6131 27.5993 16.4798 27.2309 16.3643 26.8574C16.2385 26.4514 16.128 26.0408 16.0195 25.6298C15.9373 25.3199 15.8646 25.0073 15.7952 24.6942C15.7154 24.3383 15.6415 23.981 15.5736 23.6226C15.5284 23.3806 15.5023 23.1349 15.4658 22.8914C15.4165 22.5627 15.4075 22.2314 15.4255 21.9016C15.4414 21.6044 15.484 21.3081 15.5263 21.013C15.585 20.6046 15.7197 20.2193 15.9132 19.8554C16.0325 19.6336 16.1788 19.4274 16.3487 19.2415C16.6281 18.9323 16.9662 18.709 17.3423 18.5412C17.605 18.424 17.8827 18.3537 18.1656 18.2984C18.5856 18.2166 19.0093 18.22 19.4331 18.2286C19.6183 18.2326 19.803 18.2661 19.9881 18.2847C20.3867 18.3243 20.7773 18.4083 21.163 18.5116C21.4442 18.5869 21.7197 18.6848 21.9983 18.7696C22.026 18.778 22.0671 18.7772 22.0902 18.7624C22.468 18.5157 22.8807 18.3529 23.32 18.2598C23.4867 18.2245 23.6588 18.2089 23.8292 18.1981C24.0362 18.1851 24.2453 18.1727 24.4519 18.1849C24.7003 18.1992 24.948 18.2358 25.195 18.2695C25.315 18.286 25.432 18.3274 25.552 18.3387C25.6097 18.3441 25.6707 18.3023 25.7314 18.2881C26.0415 18.2163 26.3503 18.1366 26.6633 18.0801C26.8962 18.0381 27.1343 18.0182 27.3709 18.0048C27.6353 17.9896 27.9011 17.9785 28.1651 17.9912C28.4989 18.0074 28.8302 18.0548 29.1572 18.1309C29.5626 18.2252 29.9511 18.3621 30.3207 18.5523C30.5968 18.6946 30.8591 18.8592 31.0956 19.0617C31.2505 19.1946 31.4091 19.3257 31.5488 19.4738C31.7213 19.6564 31.8972 19.8389 32.0055 20.0727C32.0871 20.2491 32.1452 20.4318 32.1613 20.6247C32.1812 20.8649 32.2054 21.1058 32.2033 21.3464C32.2013 21.5763 32.1698 21.8059 32.1476 22.0354C32.0968 22.5582 31.9834 23.0697 31.8452 23.5744C31.7299 23.9914 31.5992 24.4039 31.4535 24.8112C31.3206 25.1867 31.167 25.5554 31.012 25.9227C30.8977 26.1947 30.7736 26.4624 30.64 26.7254C30.3861 27.2226 30.1221 27.7148 29.8167 28.1836C29.764 28.2644 29.7139 28.3472 29.6625 28.4299C29.7958 28.5197 29.9468 28.5514 30.0986 28.5679C30.2432 28.5835 30.3906 28.5931 30.535 28.5822C30.7662 28.5649 30.9966 28.5319 31.2265 28.4999C31.4541 28.468 31.677 28.4033 31.911 28.4204C32.1443 28.4374 32.3115 28.6148 32.2956 28.8334C32.2855 28.9718 32.2219 29.0905 32.13 29.1919C31.696 29.6708 31.1511 29.9611 30.5278 30.1041C30.291 30.1585 30.0469 30.1864 29.8045 30.2091C29.5974 30.2273 29.3894 30.2322 29.1818 30.2238C29.0295 30.2181 28.8786 30.1833 28.723 30.1608C28.7072 30.3031 28.6924 30.4514 28.6744 30.5991L28.6018 31.1659C28.5799 31.3456 28.5628 31.5259 28.5401 31.7056C28.518 31.8799 28.4905 32.0534 28.4672 32.2276C28.4457 32.3897 28.4297 32.5529 28.4053 32.7149C28.3684 32.9631 28.333 33.2119 28.2844 33.4583C28.2263 33.7527 28.1374 34.0377 27.9917 34.3034C27.8143 34.6276 27.5629 34.8745 27.2427 35.0573C26.9127 35.2458 26.5517 35.3438 26.1863 35.4259C25.9272 35.4843 25.6607 35.4936 25.3984 35.4698C24.9437 35.4287 24.5556 35.2343 24.2622 34.8816C23.9822 34.5451 23.7927 34.1596 23.725 33.7229C23.6931 33.5151 23.6683 33.3063 23.6507 33.0968C23.6304 32.8639 23.6151 32.6306 23.605 32.3971ZM24.1161 29.4057C24.1189 29.5613 24.1028 29.7169 24.1035 29.8726C24.1069 30.5969 24.1118 31.3214 24.1182 32.0459C24.1193 32.1642 24.1251 32.2829 24.1335 32.401C24.1513 32.6485 24.169 32.8962 24.193 33.1429C24.2102 33.3182 24.2337 33.493 24.2612 33.667C24.3006 33.9132 24.4127 34.1326 24.5398 34.3424C24.6493 34.5227 24.792 34.6758 24.9797 34.7815C25.2988 34.9609 25.6422 34.9759 25.9883 34.9099C26.2221 34.8655 26.452 34.7937 26.6788 34.7196C26.902 34.6478 27.1059 34.5259 27.2747 34.3632C27.4339 34.2091 27.5468 34.021 27.6229 33.8134C27.7705 33.4111 27.8168 32.9871 27.8777 32.5668C27.9006 32.4093 27.9205 32.2514 27.9413 32.0937C27.9653 31.9143 27.9888 31.7349 28.012 31.5556C28.0292 31.4217 28.0446 31.288 28.0609 31.1543C28.0843 30.9623 28.1089 30.7705 28.1312 30.5785C28.1483 30.43 28.1625 30.2809 28.1779 30.1321C28.1974 29.9418 28.2182 29.752 28.2353 29.5613C28.248 29.4169 28.2428 29.2697 28.2685 29.1278C28.3155 28.8678 28.4385 28.6465 28.6692 28.5033C28.7655 28.4436 28.8746 28.4043 28.9815 28.3536L28.9632 28.3257C28.8643 28.1974 28.7631 28.0712 28.6661 27.9415C28.5139 27.7379 28.4044 27.5108 28.2943 27.2826C28.1901 27.0662 28.0626 26.8615 27.9529 26.6476C27.7615 26.2744 27.5665 25.9023 27.39 25.5222C27.1682 25.0441 26.9935 24.5494 26.9385 24.0199C26.9151 23.7961 26.9091 23.5722 26.9547 23.3504C27.0272 22.996 27.2121 22.7189 27.5233 22.5287C27.8121 22.3525 28.1336 22.2955 28.4631 22.2777C28.6675 22.2666 28.8731 22.2756 29.0852 22.2756L29.0783 22.2398C28.9463 21.9638 28.8231 21.6831 28.6785 21.4139C28.4749 21.0336 28.2139 20.6909 27.9236 20.3727C27.7094 20.1361 27.4741 19.9196 27.2205 19.7258C26.9696 19.5359 26.7053 19.3662 26.4231 19.2276C26.0878 19.061 25.7338 18.9351 25.3686 18.8526C25.0152 18.7742 24.6598 18.7263 24.2972 18.7223C23.9882 18.7189 23.6811 18.7332 23.38 18.8027C22.9255 18.9079 22.5098 19.0951 22.1485 19.3981C21.9483 19.5658 21.7695 19.7575 21.6162 19.9688C21.4348 20.2172 21.289 20.4861 21.1641 20.7676C20.9927 21.154 20.8752 21.5558 20.7945 21.9691C20.7544 22.1753 20.7229 22.3829 20.6908 22.5904C20.6796 22.6634 20.6788 22.7374 20.6721 22.8209L20.8093 22.7494L20.9432 22.6894C21.3964 22.4823 21.8657 22.3489 22.3701 22.3641C22.5846 22.3705 22.7893 22.4131 22.9802 22.507C23.3458 22.6874 23.5596 22.9939 23.6526 23.3817C23.7167 23.6494 23.7608 23.9224 23.8035 24.1949C23.8369 24.4075 23.8712 24.6224 23.875 24.8369C23.8804 25.1504 23.8647 25.4646 23.8476 25.7779C23.833 26.0444 23.7779 26.307 23.6841 26.5568C23.5146 27.0098 23.3256 27.4555 23.1492 27.9059C23.0908 28.0548 23.046 28.2087 22.9911 28.3724L23.2138 28.3726C23.2408 28.3731 23.2684 28.3739 23.2945 28.3801C23.4972 28.4279 23.6732 28.5197 23.8174 28.6757C24.0102 28.8827 24.111 29.125 24.1161 29.4057ZM20.2448 27.2579C20.1299 26.9875 20.0606 26.7 20.0397 26.407C20.0202 26.1306 20.053 25.8558 20.0815 25.5805C20.1088 25.3141 20.1321 25.0463 20.14 24.7789C20.1533 24.3389 20.1237 23.8999 20.1027 23.4602C20.0901 23.1985 20.1205 22.9336 20.1437 22.6712C20.1647 22.435 20.191 22.1982 20.2358 21.9653C20.3106 21.5746 20.4102 21.1894 20.5517 20.8161C20.6858 20.4621 20.8403 20.1177 21.0578 19.8074C21.2072 19.5944 21.3763 19.3958 21.5389 19.1877L21.4905 19.1704C20.9612 19.0024 20.4231 18.8708 19.8694 18.8136C19.6078 18.7864 19.3452 18.7707 19.0828 18.7549C19.0022 18.7502 18.9205 18.7611 18.8397 18.7688C18.6396 18.7881 18.4369 18.7956 18.24 18.8331C17.905 18.8969 17.5834 19.0041 17.2858 19.1787C17.0224 19.3335 16.7915 19.538 16.606 19.7807C16.3984 20.0491 16.2583 20.3524 16.158 20.6757C16.0395 21.0573 15.9829 21.4501 15.9677 21.8463C15.9544 22.1937 15.9478 22.543 16.0078 22.8891C16.0523 23.1466 16.0821 23.407 16.1312 23.6637C16.1973 24.0137 16.2714 24.3621 16.3536 24.7086C16.4723 25.2044 16.5912 25.7005 16.732 26.1903C16.8666 26.6592 17.0183 27.124 17.1833 27.5834C17.3179 27.9582 17.4737 28.3261 17.6378 28.6889C17.7447 28.9253 17.874 29.1529 18.0098 29.3742C18.154 29.6093 18.3182 29.8324 18.5406 30.0031C18.8217 30.2183 19.039 30.2519 19.3247 30.0154C19.447 29.9144 19.5503 29.7891 19.6568 29.6701C19.8257 29.4811 19.9888 29.2864 20.1572 29.0965C20.3715 28.8548 20.5885 28.6156 20.8039 28.3746C20.8495 28.3238 20.8935 28.2713 20.9378 28.2199L20.8641 28.1556C20.5983 27.902 20.3875 27.5964 20.2448 27.2579ZM28.3712 20.0573C28.5475 20.262 28.7146 20.4743 28.8722 20.6937C29.1744 21.1173 29.4176 21.58 29.595 22.0692C29.6738 22.2857 29.7368 22.5044 29.7087 22.7412C29.6892 22.9071 29.6905 23.0753 29.676 23.2422C29.6638 23.3809 29.6417 23.5189 29.6239 23.6573C29.5969 23.8658 29.5579 24.0739 29.5463 24.2834C29.535 24.4829 29.5468 24.6842 29.5594 24.8839C29.572 25.087 29.5993 25.2891 29.6179 25.4916C29.6389 25.7217 29.6674 25.9512 29.6738 26.1816C29.679 26.3706 29.6622 26.5606 29.6458 26.7496C29.6251 26.976 29.5701 27.1981 29.4827 27.4081C29.4222 27.5569 29.35 27.7009 29.2819 27.8498L29.3093 27.8787L29.3509 27.9109L29.3931 27.8359C29.7473 27.2789 30.0619 26.6977 30.3345 26.0965C30.5094 25.7085 30.6753 25.3165 30.8321 24.9209C31.0765 24.3058 31.274 23.6731 31.423 23.0283C31.4905 22.7387 31.5422 22.4448 31.588 22.1508C31.6238 21.9209 31.6534 21.6884 31.6602 21.4564C31.6671 21.2104 31.6536 20.9626 31.6309 20.7173C31.6138 20.5321 31.5681 20.3457 31.4522 20.1947C31.2655 19.9523 31.0641 19.7206 30.8164 19.537C30.6077 19.3827 30.3996 19.2239 30.1759 19.0941C29.821 18.8881 29.4368 18.7512 29.0353 18.6578C28.6433 18.5665 28.2465 18.5271 27.8472 18.5187C27.6117 18.5136 27.375 18.5389 27.1401 18.5612C26.9271 18.5811 26.7154 18.6152 26.5011 18.6434C26.7312 18.7727 26.9582 18.8879 27.172 19.0234C27.622 19.3084 28.0255 19.6514 28.3712 20.0573ZM22.525 28.0379C22.6703 27.5729 22.8685 27.1285 23.0603 26.6819C23.2161 26.3194 23.301 25.9379 23.3293 25.5456C23.3434 25.3523 23.3397 25.1566 23.3301 24.9627C23.3207 24.747 23.3009 24.5319 23.2708 24.3181C23.2305 24.0454 23.1848 23.7726 23.1203 23.5051C23.0503 23.2156 22.8741 23.0138 22.5718 22.9394C22.3879 22.8942 22.2049 22.8961 22.0187 22.9255C21.5644 22.9969 21.1485 23.1644 20.7612 23.4096C20.6832 23.4589 20.64 23.4989 20.6537 23.6104C20.6822 23.8474 20.6884 24.0882 20.6873 24.3272C20.6858 24.6657 20.6713 25.0041 20.6586 25.3424C20.6545 25.4524 20.6385 25.5623 20.6265 25.672C20.6085 25.84 20.5735 26.0078 20.5746 26.1756C20.5757 26.3485 20.5933 26.5253 20.6353 26.6927C20.7687 27.2238 21.0507 27.658 21.5132 27.9646C21.7977 28.1532 22.1123 28.2481 22.4578 28.2662C22.4807 28.1869 22.5019 28.1121 22.525 28.0379ZM21.982 23.4837C21.921 23.356 21.9559 23.2501 22.0969 23.2009C22.1314 23.1891 22.1667 23.176 22.2023 23.1726C22.2516 23.1678 22.3013 23.1713 22.351 23.1713C22.53 23.1724 22.7022 23.1974 22.8497 23.311C22.9446 23.3841 22.9701 23.4807 22.9086 23.5804C22.8214 23.7216 22.6888 23.7925 22.5257 23.806C22.269 23.8272 22.0888 23.7076 21.982 23.4837ZM29.1023 23.437L29.1606 22.9261C29.169 22.8578 29.1332 22.8391 29.0758 22.8374C28.8953 22.8325 28.7149 22.8259 28.5343 22.8229C28.3311 22.8192 28.1329 22.8518 27.9446 22.9291C27.7358 23.0151 27.5768 23.1528 27.5117 23.3802C27.4643 23.5478 27.4492 23.7229 27.4675 23.8962C27.4929 24.1643 27.5536 24.4278 27.648 24.6799C27.7744 25.0161 27.9064 25.3521 28.0645 25.6742C28.2784 26.1102 28.5203 26.5324 28.7475 26.9618C28.8081 27.0764 28.8595 27.1962 28.9227 27.3299C29.0503 27.0639 29.12 26.7739 29.127 26.479C29.1332 26.2351 29.1139 25.9906 29.0997 25.7466C29.0908 25.5974 29.0697 25.4489 29.0552 25.3C29.0352 25.0926 29.0044 24.8851 28.9995 24.6771C28.9948 24.4656 29.0098 24.253 29.0278 24.0417C29.0447 23.8396 29.0781 23.6388 29.1023 23.437ZM28.6956 23.2731C28.6285 23.4582 28.4852 23.5628 28.2992 23.5934C28.126 23.6221 27.9741 23.5581 27.8612 23.4197C27.7808 23.3213 27.8115 23.2049 27.9321 23.1381C28.0705 23.0616 28.2225 23.0423 28.402 23.0307C28.4509 23.0395 28.524 23.0472 28.5938 23.0669C28.6948 23.0954 28.7323 23.1719 28.6956 23.2731ZM23.3335 28.9737C23.2345 28.8927 23.1032 28.888 23.0091 28.9769C22.8921 29.0875 22.7892 29.2139 22.6862 29.3384C22.5675 29.4824 22.4558 29.632 22.3028 29.7436C22.0798 29.9058 21.8194 29.9729 21.558 30.0364C21.3503 30.0871 21.1414 30.1341 20.9331 30.1825L20.9305 30.2095C20.9923 30.238 21.0522 30.2738 21.1168 30.2943C21.4347 30.3947 21.7581 30.445 22.0941 30.4165C22.3363 30.3957 22.5673 30.3428 22.7862 30.2391C23.0875 30.0964 23.3194 29.8701 23.5165 29.6073C23.5495 29.5634 23.5645 29.4985 23.5682 29.4419C23.5815 29.242 23.4801 29.0933 23.3335 28.9737ZM29.1357 28.8871C28.9798 28.9394 28.8531 29.0191 28.8154 29.1876C28.7897 29.3016 28.7803 29.4196 28.7704 29.5364C28.7685 29.557 28.7942 29.5949 28.8137 29.6001C28.9337 29.6318 29.0545 29.6691 29.1771 29.6802C29.328 29.6939 29.4814 29.6896 29.6333 29.6821C29.7972 29.6738 29.9621 29.6631 30.1238 29.6361C30.5042 29.572 30.8727 29.4681 31.1996 29.2521C31.3178 29.1743 31.4344 29.0948 31.5518 29.0157L31.542 28.999C31.417 29.0176 31.2923 29.0403 31.1667 29.0536C30.9109 29.0809 30.655 29.1098 30.3983 29.1246C30.2743 29.1318 30.1487 29.1079 30.0238 29.0978C29.8142 29.0808 29.6095 29.0343 29.4323 28.9221C29.3301 28.8576 29.2446 28.8505 29.1357 28.8871Z" fill="black"/>
</svg>
