<svg width="48" height="48" viewBox="0 0 48 48" fill="none" xmlns="http://www.w3.org/2000/svg">
<g clip-path="url(#clip0_843_2864)">
<path fill-rule="evenodd" clip-rule="evenodd" d="M24.9865 47.5849C25.8914 48.3332 26.9523 48.6523 28.0975 48.7114C28.5711 48.7361 29.0584 48.7129 29.5244 48.6281C30.2637 48.4938 31.0009 48.3251 31.7199 48.1085C33.1843 47.6667 34.4496 46.9032 35.3944 45.6701C35.9326 44.9673 36.3745 44.2073 36.6582 43.3671C36.8925 42.6738 37.1127 41.9735 37.2879 41.264C37.4263 40.7051 37.4949 40.1279 37.5788 39.5568C37.6348 39.1791 37.6686 38.7974 37.7035 38.4162C37.76 37.7976 37.8191 37.1801 37.86 36.56C37.8888 36.1288 37.8878 35.6955 37.9044 35.2638C37.91 35.132 37.9312 35.0012 37.9438 34.8705C37.9544 34.7488 38.016 34.7069 38.1402 34.7089C38.5765 34.7155 39.0138 34.7266 39.4496 34.7069C39.9378 34.6852 40.4296 34.6639 40.9103 34.5837C41.5945 34.4694 42.2731 34.3245 42.9442 34.1494C43.736 33.9419 44.4626 33.5708 45.1625 33.1486C45.9764 32.6563 46.7197 32.0792 47.3211 31.3354C47.8457 30.688 48.0941 29.9377 47.9674 29.1192C47.7836 27.9301 46.7843 27.1509 45.6225 27.0979C45.2013 27.0787 44.7742 27.1232 44.3551 27.1762C43.8476 27.2408 43.3477 27.3549 42.8417 27.4302C42.4923 27.4827 42.1384 27.5059 41.79 27.5423L41.7804 27.4968C42.4317 26.2663 43.1104 25.0499 43.7264 23.8027C44.1995 22.8453 44.6035 21.8541 45.0211 20.8695C45.7128 19.2395 46.2647 17.5596 46.7222 15.8514C47.16 14.2164 47.5347 12.5637 47.6533 10.8671C47.7008 10.19 47.7336 9.50983 47.7291 8.8317C47.726 8.2904 47.6675 7.7486 47.6134 7.20932C47.5518 6.59128 47.365 6.00554 47.1065 5.44203C46.7661 4.69876 46.2375 4.0893 45.6815 3.51063C45.2367 3.0471 44.7469 2.62497 44.2616 2.20284C43.5694 1.60095 42.7907 1.11974 41.9828 0.693066C41.0671 0.206574 40.0969 -0.169705 39.0926 -0.427902C38.4806 -0.582096 37.8647 -0.720329 37.2455 -0.842459C37.0253 -0.886893 36.8032 -1 36.5815 -1H32.4066C32.2557 -1 32.1062 -0.901032 31.9542 -0.884369C30.955 -0.775397 29.9685 -0.571662 29.0079 -0.275915C28.6494 -0.165333 28.3222 -0.229966 27.9813 -0.261777C27.7198 -0.286014 27.4628 -0.353171 27.2012 -0.3663C26.206 -0.415784 25.2097 -0.487485 24.214 -0.476882C23.2607 -0.466783 22.3169 -0.309241 21.3944 -0.0476821C20.6223 0.172472 19.8664 0.439585 19.1737 0.846063C18.8778 1.01976 18.6425 0.986941 18.336 0.899081C17.3066 0.597675 16.2683 0.327576 15.2225 0.0891567C14.5706 -0.0567711 13.8996 -0.130492 13.2335 -0.199164C12.5944 -0.265643 11.9527 -0.305568 11.3102 -0.318835C10.6831 -0.332469 10.0519 -0.331964 9.42731 -0.27642C8.43308 -0.188056 7.45804 0.0139204 6.50976 0.340112C5.46465 0.697925 4.48798 1.23082 3.6215 1.91603C2.73786 2.61537 2.02892 3.46822 1.45985 4.44326C0.859478 5.47182 0.446941 6.5731 0.191441 7.72891C0.0525828 8.35554 0.103582 8.99984 0.00814805 9.63607C-0.0211385 9.83299 0.0379395 10.0309 0.0379395 10.2289V12.9985C0.0379395 13.1823 -0.016089 13.3666 0.00713824 13.5514C0.0641965 13.9952 0.0445036 14.4426 0.11974 14.8834C0.237896 15.5812 0.344438 16.2765 0.487841 16.9693C0.688303 17.9373 0.879676 18.9042 1.10185 19.8677C1.26276 20.5692 1.43915 21.2665 1.63103 21.9596C1.92389 23.019 2.20969 24.0799 2.54143 25.1266C2.84995 26.0997 3.20139 27.0585 3.55233 28.0179C4.03351 29.3444 4.62291 30.6291 5.31457 31.859C5.91797 32.9249 6.60621 33.9232 7.53025 34.7437C8.13971 35.285 8.81683 35.7006 9.60505 35.9086C10.2207 36.0727 10.8662 36.0907 11.49 35.9611C12.2132 35.8143 12.8889 35.4907 13.4567 35.0194C13.5234 34.9654 13.5956 34.9235 13.6749 35.0235C13.9748 35.4032 14.3757 35.6567 14.7953 35.8753C15.9274 36.4661 17.161 36.6433 18.4137 36.715C18.7177 36.7322 19.0237 36.6888 19.3292 36.6807C19.9255 36.664 20.5042 36.5479 21.0733 36.3833C21.3722 36.2969 21.6635 36.1868 21.9675 36.0849C21.9832 36.4085 22.0034 36.7196 22.0135 37.0311L22.0554 38.7292C22.0634 38.9878 22.0735 39.2463 22.0973 39.5038C22.1589 40.1673 22.219 40.8308 22.2982 41.4923C22.3528 41.9482 22.4103 42.4072 22.5174 42.8526C22.7328 43.75 23.0271 44.6266 23.397 45.4722C23.7508 46.2931 24.2958 47.0175 24.9865 47.5849ZM23.1733 39.118C23.1375 38.3207 23.1107 37.523 23.093 36.7251C23.0718 35.7445 23.0647 34.7634 23.0511 33.7828L23.0486 33.7455C22.5502 34.0449 22.0589 34.3721 21.5393 34.6422C20.9299 34.9588 20.2684 35.1421 19.5832 35.1941C19.0464 35.2345 18.5016 35.2714 17.9674 35.229C17.0908 35.1578 16.2142 35.0209 15.4295 34.5887C15.1114 34.4135 14.7792 34.1999 14.5595 33.9207C14.0339 33.2496 14.2858 32.4018 15.0786 31.9938C15.6265 31.7111 16.2243 31.5934 16.8181 31.4561C17.335 31.3388 17.8465 31.1989 18.3511 31.037C18.849 30.8739 19.1631 30.4699 19.4736 30.0735L19.9654 29.4413L19.3741 29.3797C18.7874 29.3252 18.2274 29.1631 17.6922 28.9258C17.2347 28.7233 17.2276 28.7011 16.8913 29.0657C16.3309 29.6741 15.7855 30.2977 15.2356 30.9168C14.8312 31.3722 14.4298 31.8302 14.0263 32.2872C13.6284 32.7391 13.2548 33.2163 12.8251 33.6364C12.1878 34.2605 11.4193 34.6357 10.5023 34.5933C9.91407 34.566 9.3758 34.36 8.89106 34.0232C7.89178 33.3274 7.2187 32.3528 6.6052 31.3303C5.82001 30.0195 5.21661 28.6233 4.70107 27.1893C4.34407 26.1976 3.98506 25.2054 3.67402 24.1996C3.3352 23.1064 3.03779 22.0005 2.74543 20.8937C2.52427 20.059 2.32835 19.2173 2.14152 18.3741C1.92646 17.4156 1.72748 16.4535 1.54468 15.4883C1.42299 14.8364 1.3528 14.175 1.25434 13.5191C1.12154 12.6339 1.0973 11.7417 1.14578 10.8535C1.1887 10.0531 1.30332 9.25534 1.41744 8.46057C1.57548 7.36081 1.93803 6.32315 2.45913 5.34306C2.78051 4.74578 3.17449 4.19051 3.63211 3.68989C4.38447 2.85724 5.29488 2.25586 6.30779 1.80393C7.01521 1.48835 7.76302 1.29899 8.52498 1.15004C9.65605 0.929883 10.7972 0.938972 11.9384 0.962199C12.4373 0.972803 12.9346 1.06319 13.433 1.11318C14.5065 1.21972 15.5583 1.44593 16.597 1.72415C17.3544 1.92714 18.0961 2.19072 18.8465 2.41895C18.9212 2.44167 19.0318 2.43965 19.0939 2.39976C20.1113 1.73526 21.2227 1.29697 22.4058 1.04602C22.8547 0.95109 23.3182 0.90918 23.7772 0.879894C24.3347 0.845053 24.8977 0.811726 25.4541 0.844548C26.1232 0.882923 26.7902 0.981387 27.4552 1.07228C27.7784 1.11671 28.0934 1.2283 28.4166 1.2586C28.5721 1.27324 28.7362 1.16064 28.8998 1.12226C29.735 0.928873 30.5666 0.714273 31.4094 0.562286C32.0365 0.449179 32.6778 0.395656 33.315 0.3593C34.027 0.3184 34.743 0.288608 35.454 0.322944C36.3528 0.366369 37.245 0.494119 38.1256 0.699125C39.2173 0.95311 40.2635 1.32172 41.2588 1.83373C42.0025 2.21698 42.7089 2.66031 43.3457 3.20565C43.7628 3.56365 44.1899 3.91661 44.5661 4.31551C45.0307 4.80732 45.5043 5.29863 45.7962 5.92829C46.0158 6.40344 46.1723 6.89525 46.2158 7.41483C46.2693 8.06166 46.3344 8.71051 46.3289 9.35835C46.3233 9.97741 46.2385 10.596 46.1789 11.214C46.0421 12.6218 45.7366 13.9993 45.3644 15.3586C45.0538 16.4813 44.702 17.5923 44.3096 18.6891C43.9516 19.7005 43.5381 20.6933 43.1205 21.6824C42.8128 22.4149 42.4787 23.1359 42.1187 23.8441C41.435 25.1832 40.724 26.5087 39.9015 27.771C39.7596 27.9886 39.6248 28.2118 39.4864 28.4345C39.8454 28.6764 40.2519 28.7617 40.6609 28.8061C41.0502 28.848 41.4471 28.8738 41.8359 28.8445C42.4585 28.7981 43.0791 28.7092 43.6981 28.6228C44.3111 28.537 44.9115 28.3628 45.5417 28.4087C46.1698 28.4547 46.6202 28.9324 46.5773 29.5211C46.55 29.8938 46.3789 30.2134 46.1314 30.4866C44.9625 31.7762 43.4951 32.5578 41.8167 32.9431C41.179 33.0895 40.5215 33.1648 39.8687 33.2259C39.3111 33.2747 38.751 33.2879 38.1917 33.2653C37.7817 33.2501 37.3753 33.1562 36.9562 33.0956C36.9137 33.4789 36.8739 33.8783 36.8254 34.2762L36.63 35.8026C36.5709 36.2863 36.5249 36.7721 36.4638 37.2558C36.4043 37.7254 36.33 38.1925 36.2674 38.6616C36.2094 39.0983 36.1664 39.5376 36.1008 39.9739C36.0013 40.6424 35.9059 41.3125 35.7751 41.976C35.6186 42.7687 35.3792 43.5363 34.9869 44.2518C34.5092 45.1248 33.8321 45.7898 32.9697 46.2821C32.081 46.7896 31.1089 47.0537 30.1248 47.2748C29.427 47.4319 28.7095 47.4571 28.0031 47.393C26.7786 47.2824 25.7334 46.7588 24.9431 45.809C24.1892 44.9026 23.6788 43.8645 23.4965 42.6885C23.4105 42.1289 23.3439 41.5666 23.2965 41.0025C23.2418 40.3753 23.2007 39.747 23.1733 39.118ZM24.5498 31.0622C24.5573 31.4813 24.5139 31.9004 24.5159 32.3195C24.525 34.2703 24.5382 36.2212 24.5553 38.1723C24.5584 38.4909 24.574 38.8105 24.5967 39.1286C24.6447 39.7952 24.6922 40.4622 24.7568 41.1267C24.8033 41.5988 24.8664 42.0694 24.9406 42.538C25.0466 43.201 25.3486 43.7918 25.6909 44.3568C25.9858 44.8425 26.3701 45.2546 26.8755 45.5394C27.7349 46.0226 28.6595 46.063 29.5916 45.8852C30.2213 45.7656 30.8403 45.5722 31.4513 45.3727C32.0524 45.1793 32.6013 44.851 33.056 44.4128C33.4847 43.9978 33.7887 43.4913 33.9937 42.9323C34.3911 41.8487 34.5158 40.7071 34.6799 39.575C34.7415 39.1509 34.795 38.7257 34.8511 38.301C34.9157 37.818 34.9791 37.3349 35.0414 36.8519C35.0879 36.4913 35.1293 36.1313 35.1732 35.7713C35.2363 35.2542 35.3025 34.7377 35.3626 34.2206C35.4085 33.8207 35.4469 33.4193 35.4883 33.0183C35.5408 32.5058 35.5969 31.9948 35.6428 31.4813C35.6771 31.0925 35.663 30.6961 35.7322 30.3139C35.8589 29.6135 36.1902 29.0177 36.8112 28.6319C37.0708 28.4714 37.3647 28.3653 37.6525 28.229L37.603 28.1537C37.3369 27.8084 37.0642 27.4685 36.8032 27.1191C36.3931 26.5708 36.0983 25.9593 35.8019 25.3448C35.5211 24.7621 35.1778 24.2107 34.8824 23.6345C34.3668 22.6297 33.8417 21.6274 33.3665 20.6039C32.7692 19.3163 32.2986 17.9842 32.1506 16.5583C32.0875 15.9554 32.0714 15.3525 32.1941 14.7552C32.3895 13.8008 32.8873 13.0545 33.7256 12.5425C34.5032 12.0679 35.3691 11.9144 36.2563 11.8664C36.8067 11.8366 37.3606 11.8608 37.9317 11.8608L37.913 11.7644C37.5575 11.0211 37.2258 10.2652 36.8365 9.54013C36.2881 8.51611 35.5852 7.59308 34.8036 6.73619C34.2267 6.09917 33.5929 5.51607 32.9101 4.99415C32.2345 4.48264 31.5225 4.02567 30.7626 3.65252C29.8597 3.20369 28.9063 2.86465 27.9228 2.64264C26.971 2.43158 26.0141 2.30231 25.0375 2.29171C24.2054 2.28262 23.3783 2.32099 22.5674 2.50833C21.3434 2.7916 20.2239 3.29553 19.2509 4.11151C18.7119 4.5632 18.2305 5.07942 17.8174 5.64855C17.3291 6.3176 16.9363 7.04168 16.6 7.7996C16.1385 8.84028 15.8219 9.92237 15.6047 11.0353C15.4967 11.5907 15.4119 12.1497 15.3255 12.7086C15.2952 12.9051 15.2932 13.1045 15.275 13.3292L15.6446 13.1368L16.0052 12.9752C17.2256 12.4173 18.4895 12.0583 19.8478 12.0992C20.4254 12.1163 20.9768 12.231 21.4908 12.4839C22.4755 12.9697 23.0511 13.7953 23.3016 14.8395C23.4742 15.5605 23.5929 16.2957 23.708 17.0294C23.7979 17.602 23.8903 18.1807 23.9004 18.7583C23.9151 19.6026 23.8726 20.4489 23.8267 21.2926C23.7874 22.0101 23.6389 22.7174 23.3864 23.3901C22.9299 24.6101 22.4209 25.8103 21.9458 27.0232C21.7888 27.4241 21.6681 27.8387 21.5201 28.2795L22.12 28.28C22.1927 28.2815 22.2669 28.2835 22.3371 28.3002C22.883 28.4289 23.3571 28.6764 23.7454 29.0965C24.2645 29.6539 24.5361 30.3063 24.5498 31.0622ZM14.1243 25.2781C13.815 24.55 13.6283 23.7757 13.5719 22.9867C13.5193 22.2424 13.6077 21.5022 13.6845 20.7609C13.7582 20.0434 13.8208 19.3223 13.842 18.6023C13.8779 17.4172 13.7981 16.2351 13.7415 15.051C13.7077 14.3462 13.7895 13.6327 13.8521 12.9263C13.9087 12.29 13.9793 11.6523 14.1 11.0252C14.3015 9.97286 14.5696 8.93571 14.9509 7.93038C15.3119 6.97705 15.728 6.04947 16.3137 5.2138C16.7161 4.64019 17.1716 4.10545 17.6094 3.54497L17.4791 3.49852C16.0536 3.04609 14.6045 2.69162 13.1134 2.53761C12.409 2.4644 11.7016 2.42198 10.9951 2.37957C10.778 2.36694 10.5579 2.39623 10.3402 2.41693C9.80147 2.46894 9.25563 2.48914 8.72544 2.59013C7.82311 2.76181 6.95714 3.05063 6.1558 3.52073C5.44638 3.9377 4.82459 4.48832 4.32488 5.1421C3.76592 5.86467 3.38872 6.68166 3.11858 7.55218C2.79946 8.57973 2.64697 9.63758 2.60607 10.7045C2.57022 11.6402 2.55254 12.5809 2.71412 13.513C2.83379 14.2063 2.91408 14.9076 3.04638 15.5989C3.22424 16.5414 3.42391 17.4797 3.64523 18.4129C3.96486 19.748 4.28499 21.0841 4.66421 22.403C5.02675 23.6658 5.43525 24.9176 5.8796 26.1547C6.24214 27.1641 6.66175 28.1548 7.10357 29.1318C7.39139 29.7685 7.7398 30.3815 8.10537 30.9774C8.49367 31.6106 8.936 32.2115 9.53486 32.6709C10.2918 33.2506 10.877 33.341 11.6465 32.7043C11.9757 32.4321 12.254 32.0948 12.5408 31.7742C12.9957 31.2652 13.435 30.7411 13.8885 30.2296C14.4656 29.5787 15.0498 28.9344 15.63 28.2855C15.7527 28.1487 15.8714 28.0073 15.9905 27.869L15.7921 27.6958C15.0764 27.0127 14.5087 26.1898 14.1243 25.2781ZM36.0089 5.88688C36.4836 6.43803 36.9338 7.00984 37.3581 7.60065C38.1719 8.74142 38.8268 9.98759 39.3046 11.3049C39.5167 11.8881 39.6864 12.4769 39.6106 13.1146C39.5581 13.5615 39.5617 14.0144 39.5228 14.4638C39.4899 14.8375 39.4304 15.2091 39.3824 15.5817C39.3097 16.1432 39.2047 16.7037 39.1734 17.2677C39.1431 17.805 39.1749 18.3473 39.2087 18.8851C39.2425 19.4319 39.3163 19.9762 39.3662 20.5216C39.4228 21.1411 39.4995 21.7592 39.5167 22.3798C39.5308 22.8887 39.4854 23.4002 39.4415 23.9092C39.3855 24.5191 39.2374 25.1171 39.0022 25.6826C38.8391 26.0835 38.6447 26.4713 38.4614 26.8722L38.5351 26.95L38.6472 27.0368L38.7608 26.8348C39.7148 25.3348 40.562 23.7695 41.2961 22.1505C41.767 21.1056 42.2139 20.05 42.6362 18.9845C43.2943 17.3281 43.8262 15.6243 44.2273 13.8877C44.4091 13.108 44.5484 12.3163 44.6716 11.5245C44.7681 10.9055 44.8479 10.2794 44.8661 9.65475C44.8847 8.99227 44.8484 8.32474 44.7873 7.66427C44.7413 7.16539 44.6181 6.66348 44.3061 6.257C43.8032 5.60412 43.2608 4.98001 42.5938 4.48567C42.0318 4.07011 41.4713 3.64242 40.8689 3.293C39.9131 2.73807 38.8785 2.36947 37.7974 2.11801C36.7416 1.8721 35.6731 1.76606 34.5976 1.74334C33.9634 1.72971 33.3261 1.79788 32.6934 1.85796C32.1198 1.91149 31.5498 2.00339 30.9726 2.07913C31.5922 2.42754 32.2037 2.73757 32.7793 3.10264C33.9911 3.87015 35.0778 4.79369 36.0089 5.88688ZM20.2648 27.3787C20.6562 26.1264 21.1899 24.9297 21.7065 23.7269C22.1261 22.7509 22.3548 21.7233 22.431 20.667C22.4689 20.1464 22.4588 19.6192 22.4331 19.0971C22.4077 18.5163 22.3544 17.9369 22.2735 17.3612C22.1649 16.627 22.0417 15.8923 21.868 15.1717C21.6797 14.3921 21.205 13.8488 20.3911 13.6483C19.8957 13.5266 19.4029 13.5317 18.9015 13.611C17.678 13.8033 16.5581 14.2543 15.5149 14.9147C15.3048 15.0475 15.1887 15.1551 15.2255 15.4555C15.3023 16.0938 15.319 16.7421 15.3159 17.3859C15.3119 18.2973 15.273 19.2087 15.2387 20.1196C15.2276 20.416 15.1846 20.7119 15.1523 21.0073C15.1038 21.4598 15.0094 21.9117 15.0125 22.3636C15.0155 22.8292 15.0629 23.3053 15.1761 23.7562C15.5351 25.1862 16.2945 26.3557 17.5402 27.1812C18.3062 27.6892 19.1535 27.9447 20.0841 27.9937C20.1457 27.7801 20.2027 27.5786 20.2648 27.3787ZM18.8025 15.1142C18.6384 14.7703 18.7324 14.485 19.1121 14.3527C19.205 14.3209 19.2999 14.2856 19.3958 14.2765C19.5286 14.2633 19.6625 14.2729 19.7963 14.2729C20.2785 14.276 20.742 14.3431 21.1394 14.6491C21.3949 14.846 21.4636 15.1061 21.298 15.3747C21.0632 15.7549 20.7062 15.9458 20.2669 15.9822C19.5756 16.0392 19.0904 15.7171 18.8025 15.1142ZM37.9777 14.9884L38.1347 13.6125C38.1574 13.4287 38.061 13.3782 37.9065 13.3736C37.4202 13.3605 36.9344 13.3428 36.4482 13.3348C35.9008 13.3247 35.3671 13.4125 34.8601 13.6206C34.2976 13.8523 33.8695 14.2229 33.6942 14.8354C33.5665 15.2868 33.526 15.7585 33.5751 16.225C33.6435 16.9469 33.807 17.6566 34.0613 18.3357C34.4017 19.241 34.7571 20.1459 35.1828 21.0134C35.7589 22.1874 36.4103 23.3245 37.0223 24.4808C37.1854 24.7893 37.3238 25.112 37.4939 25.472C37.8377 24.7558 38.0253 23.9748 38.0443 23.1806C38.061 22.5237 38.009 21.8652 37.9706 21.2083C37.9469 20.8064 37.8898 20.4064 37.8509 20.0055C37.7969 19.4471 37.7141 18.8881 37.7009 18.3281C37.6883 17.7585 37.7287 17.1859 37.7772 16.6169C37.8226 16.0725 37.9125 15.5318 37.9777 14.9884ZM36.8824 14.5471C36.7017 15.0455 36.3159 15.3273 35.815 15.4096C35.3484 15.4868 34.9394 15.3146 34.6355 14.942C34.4188 14.6769 34.5016 14.3633 34.8263 14.1836C35.199 13.9775 35.6085 13.9255 36.0917 13.8942C36.2235 13.918 36.4204 13.9387 36.6083 13.9917C36.8804 14.0684 36.9814 14.2745 36.8824 14.5471ZM22.4422 29.8988C22.1755 29.6807 21.8221 29.6681 21.5686 29.9074C21.2535 30.2053 20.9763 30.5457 20.6991 30.8809C20.3795 31.2687 20.0785 31.6717 19.6665 31.9721C19.0661 32.4089 18.3648 32.5897 17.6609 32.7608C17.1014 32.8972 16.5389 33.0239 15.9779 33.1542L15.9708 33.2269C16.1375 33.3036 16.2985 33.4001 16.4727 33.4551C17.3286 33.7258 18.1996 33.8611 19.1045 33.7843C19.7569 33.7283 20.379 33.5859 20.9682 33.3067C21.7797 32.9224 22.4043 32.3129 22.935 31.605C23.0238 31.4869 23.0642 31.3122 23.0743 31.1597C23.1102 30.6214 22.837 30.221 22.4422 29.8988ZM38.0675 29.6655C37.6479 29.8064 37.3066 30.021 37.2051 30.475C37.1359 30.782 37.1107 31.0996 37.0839 31.4142C37.0789 31.4697 37.148 31.5717 37.2005 31.5858C37.5237 31.6712 37.8489 31.7716 38.1791 31.8014C38.5856 31.8383 38.9986 31.8267 39.4076 31.8065C39.849 31.7843 40.2933 31.7555 40.7286 31.6828C41.7531 31.5101 42.7453 31.2304 43.6259 30.6487C43.944 30.4391 44.2581 30.225 44.5742 30.0119L44.5479 29.967C44.2111 30.017 43.8754 30.0781 43.5371 30.1139C42.8483 30.1877 42.1591 30.2654 41.4678 30.3053C41.134 30.3245 40.7957 30.2604 40.4594 30.2331C39.8949 30.1871 39.3435 30.0619 38.8664 29.76C38.5912 29.5863 38.3609 29.5671 38.0675 29.6655Z" fill="#605858"/>
</g>
<defs>
<clipPath id="clip0_843_2864">
<rect width="48" height="48" fill="white"/>
</clipPath>
</defs>
</svg>
