<svg width="48" height="48" viewBox="0 0 48 48" fill="none" xmlns="http://www.w3.org/2000/svg">
<g clip-path="url(#clip0_843_2910)">
<path d="M19.2895 24.2701H30.7272C33.911 24.2701 36.4191 21.5761 36.4191 18.3789V7.47507C36.4191 4.37159 33.8177 2.04005 30.7099 1.52228C28.7431 1.19475 26.7109 1.04569 24.7528 1.05511C22.7955 1.06413 20.9825 1.23083 19.3378 1.52228C14.4915 2.37778 13.6686 4.17036 13.6686 7.47507V11.718H25.0438V13.2871H9.26594C5.93809 13.2871 3.02367 15.2907 2.11247 19.0967C1.06085 23.4585 1.01417 26.1254 2.11247 30.6798C2.92639 34.0697 4.86999 36.4298 8.19824 36.4298H12.0996V31.3118C12.0996 27.5316 15.4055 24.2701 19.2895 24.2701ZM18.5686 8.92915C17.3816 8.92915 16.4198 7.95676 16.4198 6.75412C16.4198 5.54638 17.3812 4.56497 18.5686 4.56497C19.7512 4.56497 20.7177 5.54638 20.7177 6.75412C20.7173 7.95676 19.7508 8.92915 18.5686 8.92915ZM47.9046 19.0967C47.0816 15.7829 45.5107 13.2871 42.1781 13.2871H37.9881V18.3789C37.9881 22.321 34.5386 25.4468 30.7272 25.4468H19.2895C16.1562 25.4468 13.6686 28.3204 13.6686 31.4585V42.363C13.6686 45.4657 16.3143 47.2913 19.3413 48.1817C22.9665 49.2474 26.3995 49.44 30.7366 48.1817C33.6192 47.3466 36.4191 45.667 36.4191 42.363V37.9988H25.0438V36.4298H42.1781C45.506 36.4298 46.7467 34.1642 47.9046 30.6794C49.0998 27.0923 49.0484 23.6978 47.9046 19.0967ZM31.4477 40.9082C32.6351 40.9082 33.5969 41.8806 33.5969 43.084C33.5969 44.2905 32.6355 45.2723 31.4477 45.2723C30.2651 45.2723 29.299 44.2909 29.299 43.084C29.299 41.8806 30.2651 40.9082 31.4477 40.9082Z" fill="#605858"/>
</g>
<defs>
<clipPath id="clip0_843_2910">
<rect width="48" height="48" fill="white"/>
</clipPath>
</defs>
</svg>
