<svg width="48" height="48" viewBox="0 0 48 48" fill="none" xmlns="http://www.w3.org/2000/svg">
<g clip-path="url(#clip0_831_3563)">
<path d="M21.2496 23.6245H26.7169C28.2388 23.6245 29.4377 22.3368 29.4377 20.8085V15.5964C29.4377 14.1129 28.1942 12.9984 26.7086 12.7509C25.7685 12.5943 24.7971 12.523 23.8611 12.5275C22.9254 12.5319 22.0588 12.6115 21.2726 12.7509C18.9561 13.1598 18.5627 14.0167 18.5627 15.5964V17.6245H24.0002V18.3745H16.4582C14.8674 18.3745 13.4743 19.3323 13.0387 21.1516C12.5361 23.2366 12.5137 24.5114 13.0387 26.6885C13.4278 28.3089 14.3569 29.437 15.9478 29.437H17.8127V26.9905C17.8127 25.1836 19.3929 23.6245 21.2496 23.6245ZM20.9049 16.2914C20.3376 16.2914 19.8778 15.8266 19.8778 15.2517C19.8778 14.6744 20.3374 14.2053 20.9049 14.2053C21.4702 14.2053 21.9322 14.6744 21.9322 15.2517C21.9321 15.8266 21.4701 16.2914 20.9049 16.2914ZM34.9279 21.1516C34.5345 19.5676 33.7836 18.3745 32.1906 18.3745H30.1877V20.8085C30.1877 22.6929 28.5388 24.187 26.7169 24.187H21.2496C19.7518 24.187 18.5627 25.5607 18.5627 27.0607V32.2732C18.5627 33.7563 19.8274 34.6289 21.2743 35.0545C23.0072 35.564 24.6482 35.656 26.7214 35.0545C28.0993 34.6554 29.4377 33.8525 29.4377 32.2732V30.187H24.0002V29.437H32.1906C33.7813 29.437 34.3744 28.354 34.9279 26.6883C35.4992 24.9736 35.4746 23.351 34.9279 21.1516ZM27.0613 31.5777C27.6289 31.5777 28.0886 32.0425 28.0886 32.6178C28.0886 33.1945 27.6291 33.6639 27.0613 33.6639C26.496 33.6639 26.0342 33.1947 26.0342 32.6178C26.0342 32.0425 26.496 31.5777 27.0613 31.5777Z" fill="black"/>
</g>
<defs>
<clipPath id="clip0_831_3563">
<rect width="24" height="24" fill="white" transform="translate(12 12)"/>
</clipPath>
</defs>
</svg>
