<svg width="48" height="48" viewBox="0 0 48 48" fill="none" xmlns="http://www.w3.org/2000/svg">
<g clip-path="url(#clip0_831_3592)">
<path d="M35.9923 26.3404C35.9848 26.5706 35.6795 26.8249 35.0585 27.1489C33.7775 27.8171 27.1445 30.5471 25.73 31.2814C24.3163 32.0194 23.5348 32.0119 22.4173 31.4764C21.2998 30.9454 14.2415 28.0894 12.968 27.4841C12.335 27.1796 12.011 26.9254 11.999 26.6831V29.1086C11.999 29.3509 12.335 29.6044 12.968 29.9096C14.2415 30.5194 21.3043 33.3709 22.4173 33.9019C23.5348 34.4374 24.3155 34.4449 25.73 33.7069C27.1438 32.9726 33.7768 30.2418 35.0585 29.5744C35.711 29.2384 35.9998 28.9729 35.9998 28.7344V26.3434C35.9998 26.3396 35.996 26.3396 35.9923 26.3396V26.3404ZM35.9923 22.3871C35.9803 22.6136 35.6795 22.8679 35.0585 23.1956C33.7775 23.8594 27.1445 26.5901 25.73 27.3244C24.3163 28.0624 23.5348 28.0549 22.4173 27.5239C21.2998 26.9884 14.2415 24.1369 12.968 23.5279C12.335 23.2271 12.011 22.9691 11.999 22.7269V25.1524C11.999 25.3946 12.335 25.6526 12.968 25.9534C14.2415 26.5631 21.2998 29.4146 22.4173 29.9494C23.5348 30.4804 24.3155 30.4886 25.73 29.7544C27.1438 29.0164 33.7768 26.2894 35.0585 25.6219C35.711 25.2821 35.9998 25.0166 35.9998 24.7781V22.3871H35.9923ZM35.9923 18.2816C36.0043 18.0394 35.6878 17.8249 35.0428 17.5901C33.797 17.1334 27.1993 14.5084 25.937 14.0434C24.6755 13.5821 24.1595 13.6016 22.6753 14.1334C21.191 14.6689 14.171 17.4221 12.9215 17.9104C12.2968 18.1564 11.9915 18.3829 12.0035 18.6251V21.0506C12.0035 21.2929 12.3358 21.5464 12.9725 21.8516C14.2423 22.4614 21.3043 25.3129 22.4218 25.8476C23.5348 26.3786 24.32 26.3869 25.7345 25.6481C27.1445 24.9139 33.7813 22.1831 35.063 21.5194C35.7118 21.1796 36.0005 20.9141 36.0005 20.6756V18.2809L35.9923 18.2816ZM20.5933 20.5789L26.156 19.7276L24.476 22.1884L20.5933 20.5789ZM32.894 18.3596L29.2498 19.8011L25.961 18.5006L29.6015 17.0629L32.894 18.3596ZM23.2378 15.9769L22.6985 14.9846L24.3785 15.6409L25.9603 15.1249L25.5305 16.1486L27.1438 16.7539L25.0655 16.9684L24.5968 18.0896L23.8468 16.8394L21.4445 16.6249L23.2378 15.9769ZM19.0933 17.3794C20.738 17.3794 22.0663 17.8954 22.0663 18.5276C22.0663 19.1644 20.7343 19.6796 19.0933 19.6796C17.4523 19.6796 16.1203 19.1636 16.1203 18.5276C16.1203 17.8946 17.4523 17.3794 19.0933 17.3794Z" fill="black"/>
</g>
<defs>
<clipPath id="clip0_831_3592">
<rect width="24" height="24" fill="white" transform="translate(12 12)"/>
</clipPath>
</defs>
</svg>
