<svg width="48" height="48" viewBox="0 0 48 48" fill="none" xmlns="http://www.w3.org/2000/svg">
<path d="M47.985 28.6807C47.97 29.1412 47.3595 29.6497 46.1175 30.2977C43.5555 31.6342 30.2895 37.0942 27.4605 38.5627C24.633 40.0387 23.07 40.0237 20.835 38.9527C18.6 37.8907 4.48354 32.1787 1.93654 30.9682C0.670535 30.3592 0.0225352 29.8507 -0.00146484 29.3662V34.2172C-0.00146484 34.7017 0.670535 35.2087 1.93654 35.8192C4.48354 37.0387 18.609 42.7417 20.835 43.8037C23.07 44.8747 24.6315 44.8897 27.4605 43.4137C30.288 41.9452 43.554 36.4837 46.1175 35.1487C47.4225 34.4767 48 33.9457 48 33.4687V28.6867C48 28.6792 47.9925 28.6792 47.985 28.6792V28.6807ZM47.985 20.7742C47.961 21.2272 47.3595 21.7357 46.1175 22.3912C43.5555 23.7187 30.2895 29.1802 27.4605 30.6487C24.633 32.1247 23.07 32.1097 20.835 31.0477C18.6 29.9767 4.48354 24.2737 1.93654 23.0557C0.670535 22.4542 0.0225352 21.9382 -0.00146484 21.4537V26.3047C-0.00146484 26.7892 0.670535 27.3052 1.93654 27.9067C4.48354 29.1262 18.6 34.8292 20.835 35.8987C23.07 36.9607 24.6315 36.9772 27.4605 35.5087C30.288 34.0327 43.554 28.5787 46.1175 27.2437C47.4225 26.5642 48 26.0332 48 25.5562V20.7742H47.985ZM47.985 12.5632C48.009 12.0787 47.376 11.6497 46.086 11.1802C43.5945 10.2667 30.399 5.0167 27.8745 4.0867C25.3515 3.1642 24.3195 3.2032 21.351 4.2667C18.3825 5.3377 4.34254 10.8442 1.84354 11.8207C0.594035 12.3127 -0.0164648 12.7657 0.00753516 13.2502V18.1012C0.00753516 18.5857 0.672035 19.0927 1.94554 19.7032C4.48504 20.9227 18.609 26.6257 20.844 27.6952C23.07 28.7572 24.6405 28.7737 27.4695 27.2962C30.2895 25.8277 43.563 20.3662 46.1265 19.0387C47.424 18.3592 48.0015 17.8282 48.0015 17.3512V12.5617L47.985 12.5632ZM17.187 17.1577L28.3125 15.4552L24.9525 20.3767L17.187 17.1577ZM41.7885 12.7192L34.5 15.6022L27.9225 13.0012L35.2035 10.1257L41.7885 12.7192ZM22.476 7.9537L21.3975 5.9692L24.7575 7.2817L27.921 6.2497L27.0615 8.2972L30.288 9.5077L26.1315 9.9367L25.194 12.1792L23.694 9.6787L18.8895 9.2497L22.476 7.9537ZM14.187 10.7587C17.4765 10.7587 20.133 11.7907 20.133 13.0552C20.133 14.3287 17.469 15.3592 14.187 15.3592C10.905 15.3592 8.24103 14.3272 8.24103 13.0552C8.24103 11.7892 10.905 10.7587 14.187 10.7587Z" fill="#605858"/>
</svg>
