<svg width="48" height="48" viewBox="0 0 48 48" fill="none" xmlns="http://www.w3.org/2000/svg">
<g clip-path="url(#clip0_843_2844)">
<path d="M36.5261 0.0135868C30.2841 -0.280413 25.0381 4.23159 24.1421 10.1776C24.1061 10.4536 24.0521 10.7216 24.0081 10.9876C22.6161 18.3936 16.1361 24.0016 8.35413 24.0016C5.67951 24.0069 3.0473 23.3332 0.704129 22.0436C0.642314 22.0084 0.572292 21.9901 0.501146 21.9906C0.43 21.9911 0.360253 22.0104 0.298959 22.0465C0.237666 22.0827 0.187 22.1343 0.152086 22.1963C0.117172 22.2583 0.0992487 22.3284 0.100129 22.3996V47.9996H24.0001V30.0016C24.0001 26.6896 26.6761 24.0016 29.9741 24.0016H35.9501C42.7141 24.0016 48.1561 18.3676 47.8901 11.5136C47.6501 5.34559 42.6701 0.307587 36.5261 0.0135868Z" fill="#605858"/>
</g>
<defs>
<clipPath id="clip0_843_2844">
<rect width="48" height="48" fill="white"/>
</clipPath>
</defs>
</svg>
