<svg width="48" height="48" viewBox="0 0 48 48" fill="none" xmlns="http://www.w3.org/2000/svg">
<g clip-path="url(#clip0_831_3615)">
<path d="M30.2628 12.0068C27.1418 11.8598 24.5188 14.1158 24.0708 17.0888C24.0528 17.2268 24.0258 17.3608 24.0038 17.4938C23.3078 21.1968 20.0678 24.0008 16.1768 24.0008C14.8395 24.0035 13.5234 23.6666 12.3518 23.0218C12.3209 23.0042 12.2859 22.995 12.2503 22.9953C12.2148 22.9956 12.1799 23.0052 12.1492 23.0233C12.1186 23.0413 12.0933 23.0672 12.0758 23.0982C12.0583 23.1292 12.0494 23.1642 12.0498 23.1998V35.9998H23.9998V27.0008C23.9998 25.3448 25.3378 24.0008 26.9868 24.0008H29.9748C33.3568 24.0008 36.0778 21.1838 35.9448 17.7568C35.8248 14.6728 33.3348 12.1538 30.2628 12.0068Z" fill="black"/>
</g>
<defs>
<clipPath id="clip0_831_3615">
<rect width="24" height="24" fill="white" transform="translate(12 12)"/>
</clipPath>
</defs>
</svg>
