<svg width="48" height="48" viewBox="0 0 48 48" fill="none" xmlns="http://www.w3.org/2000/svg">
<path d="M40.41 32.7834C35.472 39.3614 24.928 37.1414 18.166 37.4594C18.166 37.4594 16.968 37.5274 15.764 37.7254C15.764 37.7254 16.22 37.5314 16.802 37.3294C21.55 35.6874 23.794 35.3574 26.68 33.8754C32.1 31.0994 37.496 25.0494 38.594 18.7654C36.53 24.8094 30.254 30.0114 24.54 32.1234C20.63 33.5674 13.556 34.9714 13.554 34.9714C13.4579 34.9222 13.3626 34.8715 13.268 34.8194C8.458 32.4794 8.318 22.0594 17.056 18.7014C20.888 17.2294 24.55 18.0374 28.692 17.0514C33.108 16.0014 38.224 12.6914 40.302 8.36341C42.632 15.2794 45.432 26.0954 40.41 32.7834ZM40.494 6.22341C39.9354 7.5629 39.2204 8.8317 38.364 10.0034C36.5024 8.0847 34.2743 6.55944 31.812 5.51812C29.3498 4.4768 26.7034 3.94062 24.03 3.94141C12.984 3.94141 4 12.9254 4 23.9694C3.99871 26.7243 4.56753 29.4496 5.67068 31.9739C6.77383 34.4983 8.38744 36.767 10.41 38.6374L10.85 39.0254C10.5293 38.7042 10.3493 38.2687 10.3496 37.8148C10.3499 37.3609 10.5304 36.9256 10.8515 36.6048C11.1726 36.2839 11.608 36.1037 12.0619 36.1038C12.5159 36.1039 12.9512 36.2843 13.2721 36.6053C13.5931 36.9262 13.7735 37.3616 13.7736 37.8155C13.7737 38.2694 13.5935 38.7048 13.2726 39.0259C12.9518 39.347 12.5166 39.5276 12.0626 39.5278C11.6087 39.5281 11.1732 39.3481 10.852 39.0274L11.15 39.2914C14.7508 42.3357 19.3148 44.0039 24.03 43.9994C34.586 43.9994 43.256 35.7834 43.998 25.4154C44.546 20.3374 43.046 13.8894 40.494 6.22341Z" fill="#605858"/>
</svg>
