<svg width="48" height="48" viewBox="0 0 48 48" fill="none" xmlns="http://www.w3.org/2000/svg">
<rect width="48" height="48" rx="24" fill="#F7FEE7"/>
<path d="M30.375 12H17.625C14.5184 12 12 14.5184 12 17.625V30.375C12 33.4816 14.5184 36 17.625 36H30.375C33.4816 36 36 33.4816 36 30.375V17.625C36 14.5184 33.4816 12 30.375 12Z" fill="black"/>
<path fill-rule="evenodd" clip-rule="evenodd" d="M19.7812 22.3125C20.3438 20.0625 21.7501 18.9375 24 18.9375C27.375 18.9375 27.7969 21.4688 29.4844 21.8906C30.6095 22.172 31.5938 21.7501 32.4375 20.625C31.8751 22.8749 30.4687 24 28.2188 24C24.8438 24 24.4219 21.4688 22.7344 21.0469C21.6093 20.7656 20.625 21.1875 19.7812 22.3125ZM15.5625 27.375C16.125 25.1251 17.5312 24 19.7812 24C23.1562 24 23.5781 26.5312 25.2656 26.9531C26.3907 27.2345 27.375 26.8126 28.2188 25.6875C27.6563 27.9374 26.2499 29.0625 24 29.0625C20.625 29.0625 20.2031 26.5312 18.5156 26.1094C17.3906 25.828 16.4062 26.2499 15.5625 27.375Z" fill="#F7FEE7"/>
</svg>
