<svg width="48" height="51" viewBox="0 0 48 51" fill="none" xmlns="http://www.w3.org/2000/svg">
<path d="M34.7177 26.1125C35.9427 25.275 37.6427 24.55 37.6427 24.55C37.6427 24.55 32.8052 25.425 27.9927 25.825C22.1052 26.3125 15.7802 26.4125 12.6052 25.9875C5.09267 24.9875 16.7302 22.225 16.7302 22.225C16.7302 22.225 12.2177 21.925 6.65517 24.6C0.0926728 27.775 22.9052 29.225 34.7177 26.1125ZM24.0427 22.1C21.6677 16.7625 13.6552 12.075 24.0427 3.875C37.0002 -6.35 30.3552 -13 30.3552 -13C33.0427 -2.4375 20.9052 0.762501 16.5177 7.325C13.5302 11.8125 17.9802 16.625 24.0427 22.1ZM38.3677 0.0749998C38.3802 0.0749998 16.4677 5.55 26.9302 17.6C30.0177 21.15 26.1177 24.35 26.1177 24.35C26.1177 24.35 33.9552 20.3 30.3552 15.2375C26.9927 10.5125 24.4177 8.1625 38.3677 0.0749998ZM37.6052 33.8875C37.5369 34.0066 37.4528 34.1159 37.3552 34.2125C53.3927 30 47.4927 19.35 39.8302 22.05C39.4163 22.2021 39.0587 22.4768 38.8052 22.8375C39.2526 22.6756 39.7125 22.5501 40.1802 22.4625C44.0552 21.65 49.6177 27.65 37.6052 33.8875ZM43.5002 41.675C43.5002 41.675 45.3127 43.1625 41.5127 44.325C34.2752 46.5125 11.4127 47.175 5.06267 44.4125C2.77517 43.425 7.06267 42.0375 8.41267 41.75C9.81267 41.45 10.6252 41.5 10.6252 41.5C8.08767 39.7125 -5.78733 45.0125 3.57517 46.525C29.1052 50.675 50.1252 44.6625 43.5002 41.675ZM15.5552 36.5C5.71767 39.25 21.5427 44.925 34.0677 39.5625C32.8461 39.0879 31.6669 38.5109 30.5427 37.8375C24.9552 38.9 22.3677 38.975 17.2927 38.4C13.1052 37.925 15.5552 36.5 15.5552 36.5ZM38.0302 48.65C28.1927 50.5 16.0552 50.2875 8.86767 49.1C8.86767 49.0875 10.3427 50.3125 17.9177 50.8C29.4427 51.5375 47.1427 50.3875 47.5552 44.9375C47.5552 44.9375 46.7552 47 38.0302 48.65ZM32.5802 31.125C25.1802 32.55 20.8927 32.5125 15.4802 31.95C11.2927 31.5125 14.0302 29.4875 14.0302 29.4875C3.18017 33.0875 20.0552 37.1625 35.2177 32.725C34.2377 32.379 33.3398 31.8343 32.5802 31.125Z" fill="#605858"/>
</svg>
