<svg width="52" height="48" viewBox="0 0 52 48" fill="none" xmlns="http://www.w3.org/2000/svg">
<g clip-path="url(#clip0_844_2936)">
<path d="M22.0765 28.7956C21.3128 28.7956 20.5803 29.099 20.0403 29.639C19.5003 30.179 19.1969 30.9115 19.1969 31.6752V36.2344L11.7989 28.8436C11.7098 28.7544 11.6391 28.6485 11.591 28.532C11.5428 28.4155 11.5181 28.2906 11.5182 28.1645V16.7832C13.4394 16.1039 15.0587 14.7673 16.0898 13.0096C17.1209 11.2519 17.4974 9.18626 17.1528 7.1778C16.8082 5.16934 15.7647 3.34736 14.2067 2.03388C12.6486 0.720402 10.6764 0 8.63862 0C6.60081 0 4.62861 0.720402 3.07058 2.03388C1.51256 3.34736 0.469024 5.16934 0.124426 7.1778C-0.220171 9.18626 0.156352 11.2519 1.18745 13.0096C2.21854 14.7673 3.83782 16.1039 5.75909 16.7832V28.1645C5.75639 29.0473 5.92893 29.9218 6.26669 30.7374C6.60446 31.553 7.10074 32.2934 7.72677 32.9158L15.1176 40.3138H10.5583C9.79462 40.3138 9.06219 40.6171 8.52218 41.1572C7.98216 41.6972 7.67878 42.4296 7.67878 43.1933C7.67878 43.957 7.98216 44.6894 8.52218 45.2294C9.06219 45.7695 9.79462 46.0728 10.5583 46.0728H22.0765C22.8402 46.0728 23.5726 45.7695 24.1126 45.2294C24.6526 44.6894 24.956 43.957 24.956 43.1933V31.6752C24.956 30.9115 24.6526 30.179 24.1126 29.639C23.5726 29.099 22.8402 28.7956 22.0765 28.7956ZM8.63862 5.75934C9.20814 5.75934 9.76487 5.92822 10.2384 6.24463C10.7119 6.56104 11.081 7.01076 11.299 7.53693C11.5169 8.06309 11.5739 8.64207 11.4628 9.20065C11.3517 9.75922 11.0775 10.2723 10.6748 10.675C10.2721 11.0777 9.75897 11.352 9.20039 11.4631C8.64182 11.5742 8.06284 11.5172 7.53667 11.2992C7.01051 11.0813 6.56079 10.7122 6.24438 10.2387C5.92797 9.76512 5.75909 9.2084 5.75909 8.63888C5.75909 7.87518 6.06247 7.14275 6.60249 6.60274C7.1425 6.06272 7.87492 5.75934 8.63862 5.75934ZM46.0726 31.2096V19.8283C46.0753 18.9455 45.9027 18.071 45.565 17.2554C45.2272 16.4398 44.7309 15.6994 44.1049 15.077L36.7141 7.67903H41.2734C42.0371 7.67903 42.7695 7.37565 43.3095 6.83564C43.8495 6.29562 44.1529 5.5632 44.1529 4.7995C44.1529 4.0358 43.8495 3.30337 43.3095 2.76336C42.7695 2.22334 42.0371 1.91996 41.2734 1.91996H29.7552C28.9915 1.91996 28.2591 2.22334 27.7191 2.76336C27.1791 3.30337 26.8757 4.0358 26.8757 4.7995V16.3176C26.8757 17.0813 27.1791 17.8138 27.7191 18.3538C28.2591 18.8938 28.9915 19.1972 29.7552 19.1972C30.5189 19.1972 31.2513 18.8938 31.7914 18.3538C32.3314 17.8138 32.6348 17.0813 32.6348 16.3176V11.7584L40.0328 19.1564C40.1219 19.2456 40.1925 19.3515 40.2407 19.468C40.2889 19.5845 40.3136 19.7094 40.3135 19.8355V31.2168C38.3923 31.8961 36.773 33.2327 35.7419 34.9904C34.7108 36.7481 34.3343 38.8137 34.6789 40.8222C35.0235 42.8307 36.067 44.6526 37.625 45.9661C39.183 47.2796 41.1552 48 43.1931 48C45.2309 48 47.2031 47.2796 48.7611 45.9661C50.3191 44.6526 51.3627 42.8307 51.7073 40.8222C52.0518 38.8137 51.6753 36.7481 50.6442 34.9904C49.6131 33.2327 47.9939 31.8961 46.0726 31.2168V31.2096ZM43.1931 42.2335C42.6235 42.2335 42.0668 42.0646 41.5933 41.7482C41.1197 41.4318 40.7507 40.982 40.5327 40.4559C40.3148 39.9297 40.2577 39.3507 40.3688 38.7922C40.48 38.2336 40.7542 37.7205 41.1569 37.3178C41.5596 36.9151 42.0727 36.6408 42.6313 36.5297C43.1899 36.4186 43.7688 36.4756 44.295 36.6936C44.8212 36.9115 45.2709 37.2806 45.5873 37.7541C45.9037 38.2277 46.0726 38.7844 46.0726 39.3539C46.0726 40.1176 45.7692 40.85 45.2292 41.3901C44.6892 41.9301 43.9568 42.2335 43.1931 42.2335Z" fill="#BEF264"/>
</g>
<defs>
<clipPath id="clip0_844_2936">
<rect width="52" height="48" fill="white"/>
</clipPath>
</defs>
</svg>
